<svg xmlns="http://www.w3.org/2000/svg" width="70" height="70" fill="none" viewBox="0 0 70 70"><mask id="a" fill="#fff"><path d="M48.181 67.466c-.115.922-.231 1.728.116 2.534.462-.346.925-.346 1.387-.346.231 0 .462 0 .81-.115.23 0 .461-.115.693-.23.462-.115 1.04-.346 1.734-.23h.346l.116.115c.925-.576 1.734-1.267 2.08-2.189.116-.345.347-.575.463-.92.347-.462.578-.922.578-1.383 0-.576-.347-1.037-.694-1.612-.115-.116-.23-.346-.462-.461-.347-.346-.694-.691-.925-1.152-.23-.576.116-1.267.347-1.727.116-.346.347-.692.231-.807-.115-.23-.809-.46-1.271-.46-.231 0-.463-.116-.578-.116a5.2 5.2 0 0 0-1.503-.23c-1.272-.115-2.543-.346-3.237-.921-1.156-.922-.346-2.189.116-2.764.578-.922.578-1.037.347-2.189 0-.115-.116-.23-.116-.46-.231-.692-.578-1.728-.115-2.534.23-.576.693-.922 1.04-1.152.231-.23.462-.346.578-.576.462-.576.347-.921 0-1.612l-.116-.346c-.346-.806-.346-1.612-.462-2.419v-.806c0-.345-.116-.576-.116-.806-.115-.576-.23-1.152-.115-1.728 0-.921.462-1.497.809-2.073.115-.23.231-.345.462-.576.231-.345.463-.69.81-.921.23-.23.577-.576.577-.806.116-.346.116-.922 0-1.382a3.8 3.8 0 0 1 0-1.613c.232-1.267 1.619-1.728 2.775-2.188.346-.115.693-.23 1.04-.46.462-.231.694-.346.81-.692.115-.115.115-.345.23-.69 0-.231 0-.346.116-.577h-.925c-.925 0-2.08.115-2.658-.69-.232-.346-.232-.922-.232-1.383v-.576c-.115-.576-.578-1.267-1.04-1.727-.231-.23-.462-.346-.694-.461-.462-.23-1.04-.576-1.387-1.152-1.04-1.382-1.387-1.958-2.89-1.843 0 .116.116.346.116.461.116.346.231.691.231 1.037.116.46.116 1.036.116 1.497 0 .576 0 1.152.231 1.612l.347.691c.347.691.809 1.498.347 2.65-.694 1.612-3.006 1.612-4.393 1.612-.462.576-1.387 1.151-1.85 1.267-.23.115-.693.23-1.156.23-.346.115-1.04.23-1.155.23 0 0 .115.461.115.692.116.46.231 1.036 0 1.382-.347.69-.925.921-1.387 1.151-.231.115-.347.115-.578.23-.925.461-.925.577-.578 1.613 0 .115.116.346.116.46l.115.462-.462.23c-.578.23-1.503.23-2.196.115h-1.619c-.115.115-.115.23-.347.345-.115 0-.23.116-.23.116-.348.23-.694.46-1.504.23-.23 0-.462-.115-.693-.23-.231-.116-.347-.116-.694-.116-1.85-.23-2.311.461-2.658 1.037-.347.806-.81 1.382-1.503 1.612-.116 0-.347.116-.578.116-.347 0-.81-.116-1.271-.346-.579-.345-.81-.921-1.04-1.382-.116-.115-.116-.345-.232-.46-.116-.23-.462-.807-.694-1.152-.115-.115-.346-.23-.578-.346-.346-.23-.924-.46-1.156-.921-.23-.461-.23-.691-.346-1.037 0-.345-.116-.345-.578-.576-.463-.115-.925-.115-1.503 0h-.231c-.463.115-1.156-.115-1.619-.23-.809-.115-1.271-.23-1.618-.115.116.115.116.23.231.345.347.922-.346 2.073-.924 2.995-.116.345-.347.69-.463.806 0 .23.116.576.231 1.037.232.69.347 1.382.116 2.188-.231.576-.694.921-1.04 1.267s-.578.576-.694.921h.231c.81.115 2.08.115 2.543-.23.116-.115.232-.346.347-.46.116-.116.231-.346.347-.461 1.156-1.383 2.312-1.613 3.699-.576.693.46 1.387.806 2.196 1.151l.231.116c.347.23.694.46 1.04.806.348.23.579.576.81.576.231.115.578-.115.925-.23.23-.116.578-.231.924-.346.81-.115 1.272.115 1.619.345.578.576.809 1.498.693 2.88 0 .575-.115 1.151-.23 1.612-.116.691-.232 1.382-.232 2.073s.231 1.152.462 1.728c.232.46.463 1.036.578 1.612l.116.461-.462.115c-.347.115-.347.46-.347 1.382v.346c.115.115.23.345.347.576.23.345.346.575.578.806.346.345.924.345 1.618.46.809.116 1.618.116 2.196.576.347.23.578.691.694 1.152.115.115.115.346.23.46.232.231.463.577.694.807.347.46.81.922 1.04 1.497.579 1.383-.23 1.958-.693 2.304-.347.23-.462.345-.462.576 0 .69.578 2.534 1.04 3.11.347.345.694.46 1.156.575-.231-.345-.462-.69-.462-1.151 0-1.037.809-1.613 1.387-1.958.115-.116.347-.23.462-.346.347-.346.347-.576.347-1.152v-.69c0-.692 0-2.074 1.387-2.074 1.04-.115 1.965 1.037 2.428 1.497l.23.23c.81.922.81.922 1.966.692.578-.115 1.04-.576 1.503-1.037.693-.576 1.387-1.267 2.312-1.267h.462l.116.461c.23 1.037.578 2.534.462 4.031z"/></mask><path fill="#F5F8F9" stroke="#48639E" stroke-width="2" d="M48.181 67.466c-.115.922-.231 1.728.116 2.534.462-.346.925-.346 1.387-.346.231 0 .462 0 .81-.115.23 0 .461-.115.693-.23.462-.115 1.04-.346 1.734-.23h.346l.116.115c.925-.576 1.734-1.267 2.08-2.189.116-.345.347-.575.463-.92.347-.462.578-.922.578-1.383 0-.576-.347-1.037-.694-1.612-.115-.116-.23-.346-.462-.461-.347-.346-.694-.691-.925-1.152-.23-.576.116-1.267.347-1.727.116-.346.347-.692.231-.807-.115-.23-.809-.46-1.271-.46-.231 0-.463-.116-.578-.116a5.2 5.2 0 0 0-1.503-.23c-1.272-.115-2.543-.346-3.237-.921-1.156-.922-.346-2.189.116-2.764.578-.922.578-1.037.347-2.189 0-.115-.116-.23-.116-.46-.231-.692-.578-1.728-.115-2.534.23-.576.693-.922 1.04-1.152.231-.23.462-.346.578-.576.462-.576.347-.921 0-1.612l-.116-.346c-.346-.806-.346-1.612-.462-2.419v-.806c0-.345-.116-.576-.116-.806-.115-.576-.23-1.152-.115-1.728 0-.921.462-1.497.809-2.073.115-.23.231-.345.462-.576.231-.345.463-.69.81-.921.23-.23.577-.576.577-.806.116-.346.116-.922 0-1.382a3.8 3.8 0 0 1 0-1.613c.232-1.267 1.619-1.728 2.775-2.188.346-.115.693-.23 1.04-.46.462-.231.694-.346.81-.692.115-.115.115-.345.23-.69 0-.231 0-.346.116-.577h-.925c-.925 0-2.08.115-2.658-.69-.232-.346-.232-.922-.232-1.383v-.576c-.115-.576-.578-1.267-1.04-1.727-.231-.23-.462-.346-.694-.461-.462-.23-1.04-.576-1.387-1.152-1.04-1.382-1.387-1.958-2.89-1.843 0 .116.116.346.116.461.116.346.231.691.231 1.037.116.46.116 1.036.116 1.497 0 .576 0 1.152.231 1.612l.347.691c.347.691.809 1.498.347 2.65-.694 1.612-3.006 1.612-4.393 1.612-.462.576-1.387 1.151-1.85 1.267-.23.115-.693.23-1.156.23-.346.115-1.04.23-1.155.23 0 0 .115.461.115.692.116.46.231 1.036 0 1.382-.347.69-.925.921-1.387 1.151-.231.115-.347.115-.578.23-.925.461-.925.577-.578 1.613 0 .115.116.346.116.46l.115.462-.462.23c-.578.23-1.503.23-2.196.115h-1.619c-.115.115-.115.23-.347.345-.115 0-.23.116-.23.116-.348.23-.694.46-1.504.23-.23 0-.462-.115-.693-.23-.231-.116-.347-.116-.694-.116-1.85-.23-2.311.461-2.658 1.037-.347.806-.81 1.382-1.503 1.612-.116 0-.347.116-.578.116-.347 0-.81-.116-1.271-.346-.579-.345-.81-.921-1.04-1.382-.116-.115-.116-.345-.232-.46-.116-.23-.462-.807-.694-1.152-.115-.115-.346-.23-.578-.346-.346-.23-.924-.46-1.156-.921-.23-.461-.23-.691-.346-1.037 0-.345-.116-.345-.578-.576-.463-.115-.925-.115-1.503 0h-.231c-.463.115-1.156-.115-1.619-.23-.809-.115-1.271-.23-1.618-.115.116.115.116.23.231.345.347.922-.346 2.073-.924 2.995-.116.345-.347.69-.463.806 0 .23.116.576.231 1.037.232.69.347 1.382.116 2.188-.231.576-.694.921-1.04 1.267s-.578.576-.694.921h.231c.81.115 2.08.115 2.543-.23.116-.115.232-.346.347-.46.116-.116.231-.346.347-.461 1.156-1.383 2.312-1.613 3.699-.576.693.46 1.387.806 2.196 1.151l.231.116c.347.23.694.46 1.04.806.348.23.579.576.81.576.231.115.578-.115.925-.23.23-.116.578-.231.924-.346.81-.115 1.272.115 1.619.345.578.576.809 1.498.693 2.88 0 .575-.115 1.151-.23 1.612-.116.691-.232 1.382-.232 2.073s.231 1.152.462 1.728c.232.46.463 1.036.578 1.612l.116.461-.462.115c-.347.115-.347.46-.347 1.382v.346c.115.115.23.345.347.576.23.345.346.575.578.806.346.345.924.345 1.618.46.809.116 1.618.116 2.196.576.347.23.578.691.694 1.152.115.115.115.346.23.46.232.231.463.577.694.807.347.46.81.922 1.04 1.497.579 1.383-.23 1.958-.693 2.304-.347.23-.462.345-.462.576 0 .69.578 2.534 1.04 3.11.347.345.694.46 1.156.575-.231-.345-.462-.69-.462-1.151 0-1.037.809-1.613 1.387-1.958.115-.116.347-.23.462-.346.347-.346.347-.576.347-1.152v-.69c0-.692 0-2.074 1.387-2.074 1.04-.115 1.965 1.037 2.428 1.497l.23.23c.81.922.81.922 1.966.692.578-.115 1.04-.576 1.503-1.037.693-.576 1.387-1.267 2.312-1.267h.462l.116.461c.23 1.037.578 2.534.462 4.031z" mask="url(#a)"/></svg>