<svg xmlns="http://www.w3.org/2000/svg" width="70" height="70" fill="none" viewBox="0 0 70 70"><mask id="a" fill="#fff"><path d="M25.646 61.236v.472c.105.105.21.262.262.419.209.419.261.419.785.471h.261c.419 0 1.152.053 1.309.682.052.157 0 .314-.053.471 0 .053-.052.157 0 .157.105.105.262.157.419.21q.315.078.628.314c.366.262.47.681.628.996.157.419.261.681.732.786.42.105.733.157 1.047.157h.105c.261 0 .418-.052.575.052.105.053.157.21.21.367 0 .053.052.157.052.157.105.105.262.158.523.21.21.052.471.105.733.314.21.21.314.472.419.734.052.157.104.367.209.472.21.209.785.209 1.256.209h.733v.681c.052.053.104.053.209.105.052.052.105.052.157.105.419.157.837.262 1.203.21.262-.053.576-.158.68-.367.053-.105.053-.158.053-.21 0-.21.053-.314.314-.472.576-.366 1.204-.21 1.78-.104.784.21.889.157 1.57-.105.104-.052.156-.053.261-.105.314-.105.628-.21.785-.471.052-.105.105-.158.157-.263.105-.21.157-.366.523-.576.157-.105.314-.157.524-.21.366-.104.68-.261.68-.419s-.262-.314-.419-.419c-.104-.052-.314-.052-.47-.105-.472-.052-.943-.157-1.1-.471-.052-.21 0-.42.21-.629.104-.157.261-.21.314-.262.104-.105.157-.105.157-.314v-.262c0-.21 0-.42.104-.629.105-.21.262-.367.419-.524.105-.105.21-.157.21-.262v-.157c0-.105 0-.315.104-.472.157-.157.366-.21.575-.262.105 0 .157-.052.21-.052.105-.053.157-.105.261-.105.105-.052.262-.157.42-.21.627-.21 1.15-.314 1.778.105a.7.7 0 0 0 .21.157c.157-.104.366-.104.575-.104h.262c.157-.053.21-.105.262-.262.052-.105.052-.21.157-.315.209-.419.523-.628.785-.786.209-.104.366-.262.523-.419.262-.262.157-.471-.366-.943-.157-.157-.367-.314-.471-.524-.157-.314-.21-.524-.157-.786.104-.367.523-.524.837-.629.523-.21.523-.262.47-.314-.156-.367-.836-.629-1.83-.681-.733-.053-1.152-.315-1.309-.786-.105-.367 0-.576.105-.734.052-.052.052-.104.104-.157.053-.262-.157-.786-.314-.89a.8.8 0 0 0-.628-.105c-.366.052-.68.262-.785.471l-.104.157c-.21.42-.366.63-1.1.577-.104 0-.26-.053-.366-.053-.156-.052-.366-.104-.47-.052h-.053c0 .052-.052.105-.104.21-.053.052-.053.104-.105.157-.105.157-.21.314-.523.367-.262.052-.576 0-.838-.053-.052 0-.104 0-.157-.052-.209-.053-.418-.053-.575-.157l-.105-.105s-.052-.053-.105-.053h-.104l-.105-.052h-.105c-.104.157-.104.42-.104.629v.262c0 .21 0 .524-.21.733a.45.45 0 0 1-.418.105c-.419-.052-.524-.314-.576-.524l-.052-.157c-.053-.157-.053-.21-.105-.315-.157-.21-.366-.366-.628-.576l-.052-.052c-.262-.21-.471-.42-.367-.839 0-.104.053-.366.21-.471.157-.157.366-.157.575-.157.105 0 .262-.053.262-.053v-.105c0-.104 0-.21.052-.314h-.209c-.21-.052-.366-.21-.47-.42-.053-.209 0-.418.051-.68.053-.157.053-.315.053-.42-.053-.419-.21-.943-.523-1.204-.105-.105-.21-.105-.367-.158a1.25 1.25 0 0 1-.575-.314c-.42-.42-.21-.996-.105-1.415.052-.157.105-.262.105-.419.052-.157 0-.367-.053-.576-.052-.21-.105-.42-.052-.63 0-.156.052-.313.105-.47.052-.158.104-.263.052-.367 0-.105-.105-.21-.157-.315-.157-.21-.314-.419-.262-.733l.053-.262h.261c.367.052.785.157 1.151.21.524.104.995.261 1.466.209 0-.053 0-.105.052-.157.105-.315.105-.42 0-.63-.314-.052-.314-.314-.314-.47 0-.263.105-.42.21-.63.104-.157.156-.262.156-.366q0-.157-.314-.315c-.157-.104-.366-.262-.47-.471-.21-.472.104-.786.366-.943l.157-.158c.052-.052.157-.104.21-.157.26-.21.26-.21.156-.366-.052-.053-.105-.158-.21-.262-.26-.262-.627-.682-.366-1.206.262-.419.733-.471 1.1-.524.156 0 .261-.052.366-.052.104-.052.209-.052.261-.105.262-.105.471-.21.89-.21.314 0 .628.158.89.263.104.052.209.104.261.104a.9.9 0 0 0-.21-.262 1.22 1.22 0 0 1-.365-.68c-.157-.472 0-.682.104-.892.053-.052.105-.157.157-.261.262-.682-.157-.944-.89-1.363a5.2 5.2 0 0 1-.889-.576l-.262-.262.314-.157c.21-.105.471-.157.733-.262.419-.105.89-.262 1.047-.577.209-.419.052-.68-.314-1.1-.262-.314-.576-.681-.576-1.1 0-.315.157-.577.262-.786.052-.105.104-.157.157-.262.104-.262.157-.524.209-.839s.105-.68.262-.995c.104-.21.261-.367.418-.524.21-.21.367-.42.367-.576 0-.21-.105-.262-.576-.367-.157-.053-.314-.053-.471-.105l-.366-.105.261-.314c.21-.262.419-.367.576-.472.21-.157.366-.21.419-.524.052-.21.104-.471.104-.68.105-.525.157-1.049.314-1.573.157-.576-.052-.943-.314-1.415-.21-.366-.418-.733-.418-1.257-.157.105-.367.21-.524.314l-.052.053c-.471.314-.785.314-1.151.366-.157 0-.367.053-.576.105-1.047.262-1.204 1.1-1.413 2.201 0 .105 0 .21-.052.262-.053.42-.105.838-.628 1.1-.262.105-.576.157-.89.21-.419.052-.837.105-1.047.367-.052.052-.052.21-.104.314-.053.157-.053.262-.105.42-.157.261-.314.523-.575.733-.21.21-.524.419-.785.367-.262-.053-.471-.262-.68-.524h-.053c-.837.576-1.727 1.257-2.93.995-.262-.052-.524-.21-.733-.367-.314-.21-.628-.419-.89-.366a.56.56 0 0 0-.262.157c-.052.157.157.419.262.576.052.052.105.157.157.21.314.419.785 1.048.419 1.729-.157.314-.419.419-.628.576-.157.105-.314.157-.367.315-.052.104-.104.157-.157.262-.157.366-.366.785-1.098.89-.524.105-.995-.052-1.518-.21-.366-.104-.68-.209-.994-.209-.105.89-.838.943-1.36 1.048-.263.052-.524.052-.681.157-.262.157-.367.367-.471.629-.21.367-.471.838-1.309.786-.209 0-.418-.053-.628-.105-.418-.105-.575-.157-.732.21-.419.786-.419 1.31.104 1.938.576.682.785 1.258.733 1.782-.052.472-.314.89-.785 1.205-.157.105-.314.21-.523.314-.523.315-1.36.734-1.204 1.206.053.157.314.314.576.419.366.157.733.366.837.786a.89.89 0 0 1-.157.68c-.052.053-.052.106-.104.158l-.053.157c-.157.367-.21.524-.157.996 0 .157.053.314.105.471.157.681.419 1.677-.314 2.148-.314.21-.68.21-1.047.21-.314 0-.523.053-.68.053.157.314.419.576.733.838.575.419.89.471 1.046 1.205.157.576.053 1.1.262 1.677.21.733 0 1.205.157 1.938.105 1.939 1.203 3.354 2.25 4.873.576.786.576 1.939 1.1 2.725.26.733 1.046.943 1.098 1.886"/></mask><path fill="#F5F8F9" stroke="#48639E" stroke-width="2" d="M25.646 61.236v.472c.105.105.21.262.262.419.209.419.261.419.785.471h.261c.419 0 1.152.053 1.309.682.052.157 0 .314-.053.471 0 .053-.052.157 0 .157.105.105.262.157.419.21q.315.078.628.314c.366.262.47.681.628.996.157.419.261.681.732.786.42.105.733.157 1.047.157h.105c.261 0 .418-.052.575.052.105.053.157.21.21.367 0 .053.052.157.052.157.105.105.262.158.523.21.21.052.471.105.733.314.21.21.314.472.419.734.052.157.104.367.209.472.21.209.785.209 1.256.209h.733v.681c.052.053.104.053.209.105.052.052.105.052.157.105.419.157.837.262 1.203.21.262-.053.576-.158.68-.367.053-.105.053-.158.053-.21 0-.21.053-.314.314-.472.576-.366 1.204-.21 1.78-.104.784.21.889.157 1.57-.105.104-.052.156-.053.261-.105.314-.105.628-.21.785-.471.052-.105.105-.158.157-.263.105-.21.157-.366.523-.576.157-.105.314-.157.524-.21.366-.104.68-.261.68-.419s-.262-.314-.419-.419c-.104-.052-.314-.052-.47-.105-.472-.052-.943-.157-1.1-.471-.052-.21 0-.42.21-.629.104-.157.261-.21.314-.262.104-.105.157-.105.157-.314v-.262c0-.21 0-.42.104-.629.105-.21.262-.367.419-.524.105-.105.21-.157.21-.262v-.157c0-.105 0-.315.104-.472.157-.157.366-.21.575-.262.105 0 .157-.052.21-.052.105-.053.157-.105.261-.105.105-.052.262-.157.42-.21.627-.21 1.15-.314 1.778.105a.7.7 0 0 0 .21.157c.157-.104.366-.104.575-.104h.262c.157-.053.21-.105.262-.262.052-.105.052-.21.157-.315.209-.419.523-.628.785-.786.209-.104.366-.262.523-.419.262-.262.157-.471-.366-.943-.157-.157-.367-.314-.471-.524-.157-.314-.21-.524-.157-.786.104-.367.523-.524.837-.629.523-.21.523-.262.47-.314-.156-.367-.836-.629-1.83-.681-.733-.053-1.152-.315-1.309-.786-.105-.367 0-.576.105-.734.052-.052.052-.104.104-.157.053-.262-.157-.786-.314-.89a.8.8 0 0 0-.628-.105c-.366.052-.68.262-.785.471l-.104.157c-.21.42-.366.63-1.1.577-.104 0-.26-.053-.366-.053-.156-.052-.366-.104-.47-.052h-.053c0 .052-.052.105-.104.21-.053.052-.053.104-.105.157-.105.157-.21.314-.523.367-.262.052-.576 0-.838-.053-.052 0-.104 0-.157-.052-.209-.053-.418-.053-.575-.157l-.105-.105s-.052-.053-.105-.053h-.104l-.105-.052h-.105c-.104.157-.104.42-.104.629v.262c0 .21 0 .524-.21.733a.45.45 0 0 1-.418.105c-.419-.052-.524-.314-.576-.524l-.052-.157c-.053-.157-.053-.21-.105-.315-.157-.21-.366-.366-.628-.576l-.052-.052c-.262-.21-.471-.42-.367-.839 0-.104.053-.366.21-.471.157-.157.366-.157.575-.157.105 0 .262-.053.262-.053v-.105c0-.104 0-.21.052-.314h-.209c-.21-.052-.366-.21-.47-.42-.053-.209 0-.418.051-.68.053-.157.053-.315.053-.42-.053-.419-.21-.943-.523-1.204-.105-.105-.21-.105-.367-.158a1.25 1.25 0 0 1-.575-.314c-.42-.42-.21-.996-.105-1.415.052-.157.105-.262.105-.419.052-.157 0-.367-.053-.576-.052-.21-.105-.42-.052-.63 0-.156.052-.313.105-.47.052-.158.104-.263.052-.367 0-.105-.105-.21-.157-.315-.157-.21-.314-.419-.262-.733l.053-.262h.261c.367.052.785.157 1.151.21.524.104.995.261 1.466.209 0-.053 0-.105.052-.157.105-.315.105-.42 0-.63-.314-.052-.314-.314-.314-.47 0-.263.105-.42.21-.63.104-.157.156-.262.156-.366q0-.157-.314-.315c-.157-.104-.366-.262-.47-.471-.21-.472.104-.786.366-.943l.157-.158c.052-.052.157-.104.21-.157.26-.21.26-.21.156-.366-.052-.053-.105-.158-.21-.262-.26-.262-.627-.682-.366-1.206.262-.419.733-.471 1.1-.524.156 0 .261-.052.366-.052.104-.052.209-.052.261-.105.262-.105.471-.21.89-.21.314 0 .628.158.89.263.104.052.209.104.261.104a.9.9 0 0 0-.21-.262 1.22 1.22 0 0 1-.365-.68c-.157-.472 0-.682.104-.892.053-.052.105-.157.157-.261.262-.682-.157-.944-.89-1.363a5.2 5.2 0 0 1-.889-.576l-.262-.262.314-.157c.21-.105.471-.157.733-.262.419-.105.89-.262 1.047-.577.209-.419.052-.68-.314-1.1-.262-.314-.576-.681-.576-1.1 0-.315.157-.577.262-.786.052-.105.104-.157.157-.262.104-.262.157-.524.209-.839s.105-.68.262-.995c.104-.21.261-.367.418-.524.21-.21.367-.42.367-.576 0-.21-.105-.262-.576-.367-.157-.053-.314-.053-.471-.105l-.366-.105.261-.314c.21-.262.419-.367.576-.472.21-.157.366-.21.419-.524.052-.21.104-.471.104-.68.105-.525.157-1.049.314-1.573.157-.576-.052-.943-.314-1.415-.21-.366-.418-.733-.418-1.257-.157.105-.367.21-.524.314l-.052.053c-.471.314-.785.314-1.151.366-.157 0-.367.053-.576.105-1.047.262-1.204 1.1-1.413 2.201 0 .105 0 .21-.052.262-.053.42-.105.838-.628 1.1-.262.105-.576.157-.89.21-.419.052-.837.105-1.047.367-.052.052-.052.21-.104.314-.053.157-.053.262-.105.42-.157.261-.314.523-.575.733-.21.21-.524.419-.785.367-.262-.053-.471-.262-.68-.524h-.053c-.837.576-1.727 1.257-2.93.995-.262-.052-.524-.21-.733-.367-.314-.21-.628-.419-.89-.366a.56.56 0 0 0-.262.157c-.052.157.157.419.262.576.052.052.105.157.157.21.314.419.785 1.048.419 1.729-.157.314-.419.419-.628.576-.157.105-.314.157-.367.315-.052.104-.104.157-.157.262-.157.366-.366.785-1.098.89-.524.105-.995-.052-1.518-.21-.366-.104-.68-.209-.994-.209-.105.89-.838.943-1.36 1.048-.263.052-.524.052-.681.157-.262.157-.367.367-.471.629-.21.367-.471.838-1.309.786-.209 0-.418-.053-.628-.105-.418-.105-.575-.157-.732.21-.419.786-.419 1.31.104 1.938.576.682.785 1.258.733 1.782-.052.472-.314.89-.785 1.205-.157.105-.314.21-.523.314-.523.315-1.36.734-1.204 1.206.053.157.314.314.576.419.366.157.733.366.837.786a.89.89 0 0 1-.157.68c-.052.053-.052.106-.104.158l-.053.157c-.157.367-.21.524-.157.996 0 .157.053.314.105.471.157.681.419 1.677-.314 2.148-.314.21-.68.21-1.047.21-.314 0-.523.053-.68.053.157.314.419.576.733.838.575.419.89.471 1.046 1.205.157.576.053 1.1.262 1.677.21.733 0 1.205.157 1.938.105 1.939 1.203 3.354 2.25 4.873.576.786.576 1.939 1.1 2.725.26.733 1.046.943 1.098 1.886Z" mask="url(#a)"/></svg>