<svg xmlns="http://www.w3.org/2000/svg" width="70" height="70" fill="none" viewBox="0 0 70 70"><mask id="a" fill="#fff"><path d="M42.305 67.493c.106.16.744.587.903.534.054 0 .054-.107.107-.16s.053-.107.106-.16l.16-.32c.212-.32.425-.747.796-.907.32-.16.638-.053.904 0 .16.053.266.053.425.053.319 0 .531-.266.797-.48.16-.16.319-.32.532-.48.053-.053.106-.053.106-.106.266-.214.372-.16.69 0 .266.106.426.32.585.48l.053.106c.266.267.479.534.691.854.107.16.16.32.213.426.16.374.266.587.478.64.106.054.213.054.319.054.212.053.478.106.638.213a.65.65 0 0 1 .319-.48c.106-.053.159-.16.212-.267.16-.266.053-.426-.16-.746-.159-.214-.318-.427-.318-.747-.053-.48.266-.907.531-1.28.106-.107.213-.267.266-.373l.16-.32c.106-.214.159-.427.318-.64.053-.054.106-.16.16-.214.159-.213.265-.266.318-.533l.054-.16c.053-.267.106-.533.372-.747q.159-.16.318-.16c.107-.053.213-.106.266-.16.213-.32.16-.8.16-1.226v-.747l.106-.053c.584-.374 1.222-.267 1.754-.16.106 0 .265.053.372.053.318.053.637 0 1.062-.213.053-.054.16-.054.213-.107.16-.107.372-.16.584-.213h.425c.16 0 .32 0 .479-.054.212-.106.212-.213.212-.48 0-.16 0-.32.053-.48h-.106l-1.275-.213 1.222-.32c.266-.053.266-.107.266-.32 0-.16 0-.373.053-.587.319-1.013 1.275-1.386 2.072-1.6v-.32c0-.213 0-.48.054-.693.053-.373.053-.533-.16-.747-.16-.16-.638-.533-.797-.533-.106.053-.16.107-.319.107-.372 0-.584-.16-.797-.267a.86.86 0 0 0-.372-.213c-.106-.054-.372.053-.584.106-.426.107-.798.214-1.01-.053-.213-.213-.053-.587 0-.693.053-.107.053-.16.106-.267.106-.213.16-.267.16-.533 0-.427.053-.64.265-1.014.106-.213.106-.213.106-.373v-.16c-.053-.267-.106-.8.426-.96.319-.107.797.053 1.435.267.212.106.425.16.53.16.16 0 .32.053.426.053.16 0 .319.053.478.053.266.054.532.16.797.214.266.106.585.16.85.213.213.053.426-.053.638-.107.213-.053.479-.16.744-.16h.32c.265.054.371.054.53-.106.054-.054.054-.054.054-.16 0-.054 0-.16.053-.32s.16-.267.212-.32a1 1 0 0 1-.372-.427c-.318-.533-.212-.8.107-1.067l.265-.266c.213-.267.16-.587.107-.96-.053-.214-.053-.427-.053-.64s.053-.48.106-.694c.16-.693.16-.906-.106-.96-.107-.053-.213 0-.372.054-.16.053-.32.106-.479.106-.265 0-.425-.053-.584-.16-.053 0-.107-.053-.107-.053-.106.213-.212.373-.425.427-.478.16-1.062-.374-1.594-.907-.212-.213-.531-.48-.584-.533-.107-.054-.266 0-.426 0-.318.053-.69.053-.956-.16-.266-.214-.372-.48-.425-.747-.107-.32-.16-.533-.425-.64-.213-.107-.479-.107-.744-.107-.372 0-.797-.053-1.17-.266-.318-.214-.478-.427-.584-.64-.16-.267-.266-.427-.584-.48-.32-.054-.532-.054-.691.106-.213.16-.32.48-.372 1.014v.32c0 .32.053.693-.213.96-.319.373-.957.373-1.541.426-.319 0-.585.054-.744.107l-.319.107v-.374c0-.16 0-.32-.053-.426a3.5 3.5 0 0 1 .053-1.28c-.16.053-.319.16-.425.213-.266.16-.425.213-.531.213-1.063.054-1.382-.64-1.595-1.173-.159-.32-.265-.64-.531-.8-.053-.053-.053-.053-.16 0-.106 0-.265.053-.425-.053-.212-.107-.372-.267-.584-.427-.319-.32-.478-.427-.691-.373-.425.16-.531.693-.69 1.226-.16.694-.373 1.547-1.276 1.494-.638 0-1.116-.427-1.541-.8s-.797-.694-1.276-.694c-.265 0-.425.107-.637.267-.107.053-.213.16-.372.213-.585.32-1.01.374-1.648.267-.744-.107-.903-.213-1.062-1.013-.054-.16-.054-.32-.054-.427 0-.267 0-.267-.265-.32-.266-.107-.32 0-.479.16a2.3 2.3 0 0 1-.372.32c-.16.107-.372.16-.478.16-.212.053-.319.053-.425.267-.106.213-.053.32.053.533.053.107.106.213.16.373.106.427 0 .8-.107 1.12-.053.16-.106.32-.106.48.372.054 1.01.16 1.275.534.16.16.16.426.213.693 0 .16.053.267.053.373.053.16.053.214.106.267l.107.107.053.053c.106.107.212.16.319.213.318.214.637.427.69 1.014.054.213-.053.426-.106.64-.053.106-.053.266-.106.373 0 .053 0 .213.053.32.053.267.106.587 0 .8-.106.267-.372.427-.638.48-.797.107-1.913-.853-2.232-1.28-.159-.16-.212-.32-.319-.48-.212-.32-.265-.48-.584-.48h-.372c-.266 0-.585.053-.956-.107-.904-.32-1.223-.853-1.33-1.226-.212-.64 0-1.387.532-2.08.107-.16.266-.32.479-.534.265-.266.584-.64.69-.8 0-.053 0-.106-.053-.266-.053-.107-.106-.267-.053-.374 0-.32.16-.533.319-.693.053-.107.106-.16.16-.213.053-.16 0-.267-.16-.48-.16-.214-.319-.587-.16-1.014.266-.693.904-.853 1.382-.96.213-.053.425-.106.532-.16.212-.106.212-.16.212-.373 0-.16 0-.32.106-.533.213-.534.638-.694 1.063-.907.213-.107.425-.16.585-.32a1.2 1.2 0 0 1 .266-.16c.212-.107.69-.427.744-.533.106-.267 0-.534-.16-.907-.212-.427-.425-1.013-.106-1.6.16-.267.266-.48.425-.64.319-.373.478-.587.372-1.227-.16-.693-.903-.96-1.17-1.066-.477-.107-1.009-.107-1.487-.054-.85.054-1.01-.053-1.329-.48-.106-.106-.212-.266-.425-.48l-.212-.213c-.053 0-.107 0-.16-.053h-.265c-.16 0-.372 0-.585-.107-.266.213-.531.32-.797.373 0 .054 0 .107.053.16.053.267.106.534-.372.854-.319.213-.69.266-1.063.373-.319.053-.637.107-.85.267-.053.053-.053.053-.106.16-.053.053-.107.16-.16.213-.265.32-.584.427-.903.533-.053 0-.16.054-.213.054-.531.213-.85.48-1.222.8-.106.106-.213.16-.319.266-.16.107-.265.214-.425.267-.213.107-.372.213-.478.373l-.107.16c-.212.267-.425.534-.743.694-.372.16-.744.16-1.17.16-.478 0-.85 0-1.169.32-.106.106-.16.266-.212.426 0 .054-.053.16-.107.267-.159.373-.478.533-.797.64-.212.107-.372.16-.478.32-.16.267.106.693.372 1.12.213.373.425.693.425 1.067 0 .266-.106.48-.212.64-.107.16-.16.266-.16.373 0 .48.532.853.957.907.584.053 1.169-.054 1.913-.374.053 0 .106-.053.16-.053.159-.053.265-.16.53-.107.16 0 .373.054.585.107.479.16.638.16.797-.053l.479-.747v.853c0 .107.053.214.053.32.053.267.16.534 0 .854-.213.64-.904.693-1.435.693h-.16v.32l-.159.053c-.319.107-.638.107-.903.107h-.479c-.637.107-1.328.373-1.434.64-.053.213-.053.32.265.48.053 0 .107.053.16.053.106.054.265.107.372.214.16.106.16.32.212.426 0 .054.053.16.053.214.054.106.266.16.426.213.265.107.531.213.584.48s-.106.587-.266.747c-.265.32-.584.48-.903.64-.213.106-.425.213-.585.373l-.106.107-.16-.054a1.1 1.1 0 0 1-.318-.213c-.053-.053-.213-.16-.266-.16-.053.107.213.587.372.747.585.426 1.223 1.013 1.223 1.92 0 .32 0 .693-.32.853-.371.16-.797-.213-1.222-.587-.106-.106-.212-.213-.319-.266-.265-.16-.584-.16-.956-.16-.266 0-.531.053-.744 0-.531-.107-.797-.48-1.063-.8s-.372-.48-.69-.427h-.107c0 .053 0 .107.053.16.107.587.053.907-.531 1.333-.319.214-.585.374-.85.534l-.213.106c-.16.107-.16.16-.16.374 0 .16 0 .426-.159.693-.319.533-.797.427-1.169.32-.16-.053-.319-.107-.425-.053a.77.77 0 0 0-.372.106.29.29 0 0 1-.16.267c-.265.213-.584.213-.903.107-.372-.214-.69-.64-.69-1.067 0-.8 1.009-1.067 1.806-1.227.106 0 .213-.053.266-.053L16 46.587c-.212-.214-.478-.427-.425-.8.053-.587.638-.64 1.063-.747.266-.053.584-.107.638-.213.106-.214-.053-.427-.266-.8-.16-.214-.319-.427-.372-.694-.053-.32.106-.64.212-.96.16-.373.213-.533.107-.64-.107-.106-.638-.16-.797-.106-.053 0-.053.16-.107.213-.053.16-.106.373-.265.48-.32.267-.957.32-1.382.107-.319-.107-.478-.32-.531-.64-.054-.374.106-.587.212-.694l.053-.053s0-.053-.16-.213c-.052-.054-.052-.107-.105-.107-.107-.107-.107-.16-.107-.267l-.053-.16c0-.106-.053-.213-.053-.266v-.107c-.585.373-1.382.373-2.073 0-.318-.213-.478-.267-.584-.267v.214c0 .213.212.32.531.48.266.16.638.32.691.64.053.426-.425.64-.85.853a1.2 1.2 0 0 0-.266.16c-.478.32-.744.533-.638.907 0 .053.054.053.054.16.053.106.16.213.16.373.052.32-.054.533-.16.747-.053.053-.053.106-.107.16-.053.053-.053.16-.106.213l-.053.053v.054c.053.106.319.266.425.32s.213.16.319.213c.372.32.584.8.584 1.28v.32c0 .267.054.533-.053.747-.053.16-.212.266-.265.373-.054.053-.107.053-.107.107-.16.266-.106.48.053.8.107.266.213.533.16.853-.106 1.013-1.435 1.013-2.285 1.067-.213 0-.425 0-.532.053-.425.053-1.01.32-1.062.48 0 .053.212.213.318.267.16.106.372.213.479.373.16.267.16.533.16.8 0 .16 0 .32.052.373.053.054.107.054.213.107.16.053.319.16.425.373.053.16 0 .267-.106.48-.266.427-.744.427-1.17.427-.212 0-.425 0-.53.053-.16.054-.213.214-.213.32-.054.16 0 .374.106.48.106.107.16.214.266.267.318.267.744.747.106 1.44a5.4 5.4 0 0 0-.85 1.067c-.266.48-.585.48-.85.533-.107 0-.213 0-.373.053A1.6 1.6 0 0 0 5 58.96q0 .08.478.32c.16.053.266.16.372.213l.32.267-.426.16c-.106.053-.16.107-.266.107l-.319.16v.213c0 .16-.053.32 0 .427 0 .106.107.266.16.373l.16.32c.159.48.052.853-.107 1.227.478.106 1.17.053 1.594-.16.053 0 .106-.054.106-.107.16-.107.426-.32.744-.107.32.214.266.747.213 1.174v.213c-.053 1.28.16 1.493.266 1.493.053 0 .106 0 .265-.053s.426-.16.691-.053c.107.053.213.053.32.106.371.16.637.267 1.115.267.106 0 .266 0 .478-.053.372-.054.797-.107 1.063 0 .479.213.479.746.479 1.226 0 .534 0 .907.371 1.014.32.106.585 0 .957-.267a1.9 1.9 0 0 1 .744-.32c.372-.107.797.053 1.17.213.159.054.371.107.477.16.213.054.479 0 .797-.053.638-.107 1.435-.16 1.807.427.16.213.16.586.16 1.013 0 .373 0 .96.16 1.067.052.053.105.053.212.053.16 0 .372-.107.584-.213.213-.107.479-.267.744-.267h.479c.265 0 .584 0 .797-.107.265-.16.318-.426.425-.906.053-.374.106-.8.425-1.12.265-.267.637-.374.956-.427.213-.053.372-.107.532-.16.265-.16.265-.32.265-.693 0-.267 0-.587.16-.854.478-.693 1.222-.32 1.807-.053.265.107.584.267.744.267.106 0 .16-.054.265-.16.107-.16.372-.374.797-.16.213.16 1.116 1.013 1.01 1.493v.16l-.16.053c-.637.267-.956.48-1.009.64 0 .054.053.16.106.214.32.266.957.053 1.541-.107.372-.107.691-.213.957-.213.16 0 .372.053.638.106.478.107 1.169.267 1.328-.053.053-.053 0-.213-.053-.32-.053-.213-.106-.427 0-.693.266-.48 1.329-.747 1.7-.747.532 0 .745.373.904.64.106.16.16.32.319.427.319.266.85.48 1.275.213.053-.053.106-.16.16-.267.106-.213.265-.426.531-.48s.532.107.744.267c.213.107.372.213.531.213.213 0 .266-.16.426-.533.106-.32.265-.693.637-.853.585-.267 2.179-.054 2.657.64.266.373.16.693.107.96-.638.373-.638.48-.585.586"/></mask><path fill="#F5F8F9" stroke="#48639E" stroke-width="2" d="M42.305 67.493c.106.16.744.587.903.534.054 0 .054-.107.107-.16s.053-.107.106-.16l.16-.32c.212-.32.425-.747.796-.907.32-.16.638-.053.904 0 .16.053.266.053.425.053.319 0 .531-.266.797-.48.16-.16.319-.32.532-.48.053-.053.106-.053.106-.106.266-.214.372-.16.69 0 .266.106.426.32.585.48l.053.106c.266.267.479.534.691.854.107.16.16.32.213.426.16.374.266.587.478.64.106.054.213.054.319.054.212.053.478.106.638.213a.65.65 0 0 1 .319-.48c.106-.053.159-.16.212-.267.16-.266.053-.426-.16-.746-.159-.214-.318-.427-.318-.747-.053-.48.266-.907.531-1.28.106-.107.213-.267.266-.373l.16-.32c.106-.214.159-.427.318-.64.053-.054.106-.16.16-.214.159-.213.265-.266.318-.533l.054-.16c.053-.267.106-.533.372-.747q.159-.16.318-.16c.107-.053.213-.106.266-.16.213-.32.16-.8.16-1.226v-.747l.106-.053c.584-.374 1.222-.267 1.754-.16.106 0 .265.053.372.053.318.053.637 0 1.062-.213.053-.054.16-.054.213-.107.16-.107.372-.16.584-.213h.425c.16 0 .32 0 .479-.054.212-.106.212-.213.212-.48 0-.16 0-.32.053-.48h-.106l-1.275-.213 1.222-.32c.266-.053.266-.107.266-.32 0-.16 0-.373.053-.587.319-1.013 1.275-1.386 2.072-1.6v-.32c0-.213 0-.48.054-.693.053-.373.053-.533-.16-.747-.16-.16-.638-.533-.797-.533-.106.053-.16.107-.319.107-.372 0-.584-.16-.797-.267a.86.86 0 0 0-.372-.213c-.106-.054-.372.053-.584.106-.426.107-.798.214-1.01-.053-.213-.213-.053-.587 0-.693.053-.107.053-.16.106-.267.106-.213.16-.267.16-.533 0-.427.053-.64.265-1.014.106-.213.106-.213.106-.373v-.16c-.053-.267-.106-.8.426-.96.319-.107.797.053 1.435.267.212.106.425.16.53.16.16 0 .32.053.426.053.16 0 .319.053.478.053.266.054.532.16.797.214.266.106.585.16.85.213.213.053.426-.053.638-.107.213-.053.479-.16.744-.16h.32c.265.054.371.054.53-.106.054-.054.054-.054.054-.16 0-.054 0-.16.053-.32s.16-.267.212-.32a1 1 0 0 1-.372-.427c-.318-.533-.212-.8.107-1.067l.265-.266c.213-.267.16-.587.107-.96-.053-.214-.053-.427-.053-.64s.053-.48.106-.694c.16-.693.16-.906-.106-.96-.107-.053-.213 0-.372.054-.16.053-.32.106-.479.106-.265 0-.425-.053-.584-.16-.053 0-.107-.053-.107-.053-.106.213-.212.373-.425.427-.478.16-1.062-.374-1.594-.907-.212-.213-.531-.48-.584-.533-.107-.054-.266 0-.426 0-.318.053-.69.053-.956-.16-.266-.214-.372-.48-.425-.747-.107-.32-.16-.533-.425-.64-.213-.107-.479-.107-.744-.107-.372 0-.797-.053-1.17-.266-.318-.214-.478-.427-.584-.64-.16-.267-.266-.427-.584-.48-.32-.054-.532-.054-.691.106-.213.16-.32.48-.372 1.014v.32c0 .32.053.693-.213.96-.319.373-.957.373-1.541.426-.319 0-.585.054-.744.107l-.319.107v-.374c0-.16 0-.32-.053-.426a3.5 3.5 0 0 1 .053-1.28c-.16.053-.319.16-.425.213-.266.16-.425.213-.531.213-1.063.054-1.382-.64-1.595-1.173-.159-.32-.265-.64-.531-.8-.053-.053-.053-.053-.16 0-.106 0-.265.053-.425-.053-.212-.107-.372-.267-.584-.427-.319-.32-.478-.427-.691-.373-.425.16-.531.693-.69 1.226-.16.694-.373 1.547-1.276 1.494-.638 0-1.116-.427-1.541-.8s-.797-.694-1.276-.694c-.265 0-.425.107-.637.267-.107.053-.213.16-.372.213-.585.32-1.01.374-1.648.267-.744-.107-.903-.213-1.062-1.013-.054-.16-.054-.32-.054-.427 0-.267 0-.267-.265-.32-.266-.107-.32 0-.479.16a2.3 2.3 0 0 1-.372.32c-.16.107-.372.16-.478.16-.212.053-.319.053-.425.267-.106.213-.053.32.053.533.053.107.106.213.16.373.106.427 0 .8-.107 1.12-.053.16-.106.32-.106.48.372.054 1.01.16 1.275.534.16.16.16.426.213.693 0 .16.053.267.053.373.053.16.053.214.106.267l.107.107.053.053c.106.107.212.16.319.213.318.214.637.427.69 1.014.054.213-.053.426-.106.64-.053.106-.053.266-.106.373 0 .053 0 .213.053.32.053.267.106.587 0 .8-.106.267-.372.427-.638.48-.797.107-1.913-.853-2.232-1.28-.159-.16-.212-.32-.319-.48-.212-.32-.265-.48-.584-.48h-.372c-.266 0-.585.053-.956-.107-.904-.32-1.223-.853-1.33-1.226-.212-.64 0-1.387.532-2.08.107-.16.266-.32.479-.534.265-.266.584-.64.69-.8 0-.053 0-.106-.053-.266-.053-.107-.106-.267-.053-.374 0-.32.16-.533.319-.693.053-.107.106-.16.16-.213.053-.16 0-.267-.16-.48-.16-.214-.319-.587-.16-1.014.266-.693.904-.853 1.382-.96.213-.053.425-.106.532-.16.212-.106.212-.16.212-.373 0-.16 0-.32.106-.533.213-.534.638-.694 1.063-.907.213-.107.425-.16.585-.32a1.2 1.2 0 0 1 .266-.16c.212-.107.69-.427.744-.533.106-.267 0-.534-.16-.907-.212-.427-.425-1.013-.106-1.6.16-.267.266-.48.425-.64.319-.373.478-.587.372-1.227-.16-.693-.903-.96-1.17-1.066-.477-.107-1.009-.107-1.487-.054-.85.054-1.01-.053-1.329-.48-.106-.106-.212-.266-.425-.48l-.212-.213c-.053 0-.107 0-.16-.053h-.265c-.16 0-.372 0-.585-.107-.266.213-.531.32-.797.373 0 .054 0 .107.053.16.053.267.106.534-.372.854-.319.213-.69.266-1.063.373-.319.053-.637.107-.85.267-.053.053-.053.053-.106.16-.053.053-.107.16-.16.213-.265.32-.584.427-.903.533-.053 0-.16.054-.213.054-.531.213-.85.48-1.222.8-.106.106-.213.16-.319.266-.16.107-.265.214-.425.267-.213.107-.372.213-.478.373l-.107.16c-.212.267-.425.534-.743.694-.372.16-.744.16-1.17.16-.478 0-.85 0-1.169.32-.106.106-.16.266-.212.426 0 .054-.053.16-.107.267-.159.373-.478.533-.797.64-.212.107-.372.16-.478.32-.16.267.106.693.372 1.12.213.373.425.693.425 1.067 0 .266-.106.48-.212.64-.107.16-.16.266-.16.373 0 .48.532.853.957.907.584.053 1.169-.054 1.913-.374.053 0 .106-.053.16-.053.159-.053.265-.16.53-.107.16 0 .373.054.585.107.479.16.638.16.797-.053l.479-.747v.853c0 .107.053.214.053.32.053.267.16.534 0 .854-.213.64-.904.693-1.435.693h-.16v.32l-.159.053c-.319.107-.638.107-.903.107h-.479c-.637.107-1.328.373-1.434.64-.053.213-.053.32.265.48.053 0 .107.053.16.053.106.054.265.107.372.214.16.106.16.32.212.426 0 .054.053.16.053.214.054.106.266.16.426.213.265.107.531.213.584.48s-.106.587-.266.747c-.265.32-.584.48-.903.64-.213.106-.425.213-.585.373l-.106.107-.16-.054a1.1 1.1 0 0 1-.318-.213c-.053-.053-.213-.16-.266-.16-.053.107.213.587.372.747.585.426 1.223 1.013 1.223 1.92 0 .32 0 .693-.32.853-.371.16-.797-.213-1.222-.587-.106-.106-.212-.213-.319-.266-.265-.16-.584-.16-.956-.16-.266 0-.531.053-.744 0-.531-.107-.797-.48-1.063-.8s-.372-.48-.69-.427h-.107c0 .053 0 .107.053.16.107.587.053.907-.531 1.333-.319.214-.585.374-.85.534l-.213.106c-.16.107-.16.16-.16.374 0 .16 0 .426-.159.693-.319.533-.797.427-1.169.32-.16-.053-.319-.107-.425-.053a.77.77 0 0 0-.372.106.29.29 0 0 1-.16.267c-.265.213-.584.213-.903.107-.372-.214-.69-.64-.69-1.067 0-.8 1.009-1.067 1.806-1.227.106 0 .213-.053.266-.053L16 46.587c-.212-.214-.478-.427-.425-.8.053-.587.638-.64 1.063-.747.266-.053.584-.107.638-.213.106-.214-.053-.427-.266-.8-.16-.214-.319-.427-.372-.694-.053-.32.106-.64.212-.96.16-.373.213-.533.107-.64-.107-.106-.638-.16-.797-.106-.053 0-.053.16-.107.213-.053.16-.106.373-.265.48-.32.267-.957.32-1.382.107-.319-.107-.478-.32-.531-.64-.054-.374.106-.587.212-.694l.053-.053s0-.053-.16-.213c-.052-.054-.052-.107-.105-.107-.107-.107-.107-.16-.107-.267l-.053-.16c0-.106-.053-.213-.053-.266v-.107c-.585.373-1.382.373-2.073 0-.318-.213-.478-.267-.584-.267v.214c0 .213.212.32.531.48.266.16.638.32.691.64.053.426-.425.64-.85.853a1.2 1.2 0 0 0-.266.16c-.478.32-.744.533-.638.907 0 .053.054.053.054.16.053.106.16.213.16.373.052.32-.054.533-.16.747-.053.053-.053.106-.107.16-.053.053-.053.16-.106.213l-.053.053v.054c.053.106.319.266.425.32s.213.16.319.213c.372.32.584.8.584 1.28v.32c0 .267.054.533-.053.747-.053.16-.212.266-.265.373-.054.053-.107.053-.107.107-.16.266-.106.48.053.8.107.266.213.533.16.853-.106 1.013-1.435 1.013-2.285 1.067-.213 0-.425 0-.532.053-.425.053-1.01.32-1.062.48 0 .053.212.213.318.267.16.106.372.213.479.373.16.267.16.533.16.8 0 .16 0 .32.052.373.053.054.107.054.213.107.16.053.319.16.425.373.053.16 0 .267-.106.48-.266.427-.744.427-1.17.427-.212 0-.425 0-.53.053-.16.054-.213.214-.213.32-.054.16 0 .374.106.48.106.107.16.214.266.267.318.267.744.747.106 1.44a5.4 5.4 0 0 0-.85 1.067c-.266.48-.585.48-.85.533-.107 0-.213 0-.373.053A1.6 1.6 0 0 0 5 58.96q0 .08.478.32c.16.053.266.16.372.213l.32.267-.426.16c-.106.053-.16.107-.266.107l-.319.16v.213c0 .16-.053.32 0 .427 0 .106.107.266.16.373l.16.32c.159.48.052.853-.107 1.227.478.106 1.17.053 1.594-.16.053 0 .106-.054.106-.107.16-.107.426-.32.744-.107.32.214.266.747.213 1.174v.213c-.053 1.28.16 1.493.266 1.493.053 0 .106 0 .265-.053s.426-.16.691-.053c.107.053.213.053.32.106.371.16.637.267 1.115.267.106 0 .266 0 .478-.053.372-.054.797-.107 1.063 0 .479.213.479.746.479 1.226 0 .534 0 .907.371 1.014.32.106.585 0 .957-.267a1.9 1.9 0 0 1 .744-.32c.372-.107.797.053 1.17.213.159.054.371.107.477.16.213.054.479 0 .797-.053.638-.107 1.435-.16 1.807.427.16.213.16.586.16 1.013 0 .373 0 .96.16 1.067.052.053.105.053.212.053.16 0 .372-.107.584-.213.213-.107.479-.267.744-.267h.479c.265 0 .584 0 .797-.107.265-.16.318-.426.425-.906.053-.374.106-.8.425-1.12.265-.267.637-.374.956-.427.213-.053.372-.107.532-.16.265-.16.265-.32.265-.693 0-.267 0-.587.16-.854.478-.693 1.222-.32 1.807-.053.265.107.584.267.744.267.106 0 .16-.054.265-.16.107-.16.372-.374.797-.16.213.16 1.116 1.013 1.01 1.493v.16l-.16.053c-.637.267-.956.48-1.009.64 0 .054.053.16.106.214.32.266.957.053 1.541-.107.372-.107.691-.213.957-.213.16 0 .372.053.638.106.478.107 1.169.267 1.328-.053.053-.053 0-.213-.053-.32-.053-.213-.106-.427 0-.693.266-.48 1.329-.747 1.7-.747.532 0 .745.373.904.64.106.16.16.32.319.427.319.266.85.48 1.275.213.053-.053.106-.16.16-.267.106-.213.265-.426.531-.48s.532.107.744.267c.213.107.372.213.531.213.213 0 .266-.16.426-.533.106-.32.265-.693.637-.853.585-.267 2.179-.054 2.657.64.266.373.16.693.107.96-.638.373-.638.48-.585.586Z" mask="url(#a)"/></svg>