<svg xmlns="http://www.w3.org/2000/svg" width="70" height="70" fill="none" viewBox="0 0 70 70"><mask id="a" fill="#fff"><path d="M14.108 62.127c.248-.125.745-.125 1.243-.125 1.243 0 1.864.375 2.486.875.248.25.497.375.87.624q.932.562 1.864.375c.125 0 .249 0 .373-.124.249-.126.498-.126.746-.126.87-1 2.238-.75 3.232-.5.497.126.994.25 1.367.126h.249c.622-.125 1.367-.25 2.113.125 1.119.374 1.367.874 1.492 1.624 0 .25.124.375.248.625.125.25.373.375.746.5.249.125.622.25.87.625.373.375.746 1 .995 1.5.124.25.248.374.248.624.125.5.249.75.622.875.373.25.621.25.87.25.373-.125.622-.5.87-1q.933-2.25 4.102-1.874c.373 0 .622.125.87.25.125 0 .373.125.622.125.373.125.373 0 .621-.125.125 0 .125-.125.249-.125.124-.125.248-.375.497-.5.373-.125.746-.125 1.367-.125h2.362c-.373-1.125-.621-2.125 1.243-3.125l.746-.374c.497-.25.746-.25.87-.625 0-.125 0-.5-.124-.75-.124-.625-.249-1.25.124-1.75s1.119-.625 1.99-.75c.372-.124.745-.124.87-.25.62-.25 1.49-.874 1.615-1.124l.124-.375h.373c.87 0 3.357.125 3.854-1 .248-.625.124-1-.373-1.75-.124-.25-.373-.624-.497-1-.249-.749-.249-1.499-.249-2.124 0-.5 0-1-.124-1.374s-.124-.625-.249-1c-.124-.375-.248-.875-.373-1.25 0-.25-.124-.5-.124-.75 0-.375-.124-.875-.249-1.124-.124-.375-.497-.625-.994-.875-.622-.375-1.492-.875-1.616-2.125v-1.25c.124-.624.124-.874-.373-1.374-.249-.25-.621-.375-.994-.5s-.746-.25-1.12-.625c0 0-.123 0-.123.125-.622.5-1.74.375-2.362.25-.87-.25-1.367-.875-1.74-1.75-.622-1.25-.746-2.624-.746-3.749 0-.874-.249-1.124-.746-1.874l-.497-.75c-.746-1.125-1.616-2.25-1.865-3.75-.124-.749 0-1.374.124-1.999 0-.375.125-.625.125-.874H42.2c-.621 0-1.367 0-1.989-.5a3.9 3.9 0 0 1-1.118-1.375c-.249-.375-.498-.75-.746-1-.497-.25-.746-.125-1.492.125-.248.125-.497.25-.87.375.124.75 0 1.5-.746 2.25-2.486 2.124-8.08-.5-9.323 2.499-.621 1.375.249 2-.994 3.25-1.367 1.374-2.61.874-1.864 3.123.745 2.5 2.61 4.124.745 6.499-.87 1-2.361.75-.87 2.125.746.624 2.238.5 3.108.874.124 2.375-6.713 4.25-8.453 5.749-.746-.375-1.119 1.25-1.243 1.874-.373 1.25-.621 1.875-1.74 2.5-.995.5-2.113.875-2.238 2.25-.124 1 .746 1.624.498 2.749-.25.75-1.12 1.75-1.865 2.374.497.375.994.875 1.616 1.125.746.375.994.375 1.492.25"/></mask><path fill="#F5F8F9" d="M14.108 62.127c.248-.125.745-.125 1.243-.125 1.243 0 1.864.375 2.486.875.248.25.497.375.87.624q.932.562 1.864.375c.125 0 .249 0 .373-.124.249-.126.498-.126.746-.126.87-1 2.238-.75 3.232-.5.497.126.994.25 1.367.126h.249c.622-.125 1.367-.25 2.113.125 1.119.374 1.367.874 1.492 1.624 0 .25.124.375.248.625.125.25.373.375.746.5.249.125.622.25.87.625.373.375.746 1 .995 1.5.124.25.248.374.248.624.125.5.249.75.622.875.373.25.621.25.87.25.373-.125.622-.5.87-1q.933-2.25 4.102-1.874c.373 0 .622.125.87.25.125 0 .373.125.622.125.373.125.373 0 .621-.125.125 0 .125-.125.249-.125.124-.125.248-.375.497-.5.373-.125.746-.125 1.367-.125h2.362c-.373-1.125-.621-2.125 1.243-3.125l.746-.374c.497-.25.746-.25.87-.625 0-.125 0-.5-.124-.75-.124-.625-.249-1.25.124-1.75s1.119-.625 1.99-.75c.372-.124.745-.124.87-.25.62-.25 1.49-.874 1.615-1.124l.124-.375h.373c.87 0 3.357.125 3.854-1 .248-.625.124-1-.373-1.75-.124-.25-.373-.624-.497-1-.249-.749-.249-1.499-.249-2.124 0-.5 0-1-.124-1.374s-.124-.625-.249-1c-.124-.375-.248-.875-.373-1.25 0-.25-.124-.5-.124-.75 0-.375-.124-.875-.249-1.124-.124-.375-.497-.625-.994-.875-.622-.375-1.492-.875-1.616-2.125v-1.25c.124-.624.124-.874-.373-1.374-.249-.25-.621-.375-.994-.5s-.746-.25-1.12-.625c0 0-.123 0-.123.125-.622.5-1.74.375-2.362.25-.87-.25-1.367-.875-1.74-1.75-.622-1.25-.746-2.624-.746-3.749 0-.874-.249-1.124-.746-1.874l-.497-.75c-.746-1.125-1.616-2.25-1.865-3.75-.124-.749 0-1.374.124-1.999 0-.375.125-.625.125-.874H42.2c-.621 0-1.367 0-1.989-.5a3.9 3.9 0 0 1-1.118-1.375c-.249-.375-.498-.75-.746-1-.497-.25-.746-.125-1.492.125-.248.125-.497.25-.87.375.124.75 0 1.5-.746 2.25-2.486 2.124-8.08-.5-9.323 2.499-.621 1.375.249 2-.994 3.25-1.367 1.374-2.61.874-1.864 3.123.745 2.5 2.61 4.124.745 6.499-.87 1-2.361.75-.87 2.125.746.624 2.238.5 3.108.874.124 2.375-6.713 4.25-8.453 5.749-.746-.375-1.119 1.25-1.243 1.874-.373 1.25-.621 1.875-1.74 2.5-.995.5-2.113.875-2.238 2.25-.124 1 .746 1.624.498 2.749-.25.75-1.12 1.75-1.865 2.374.497.375.994.875 1.616 1.125.746.375.994.375 1.492.25"/><path fill="#48639E" d="m14.108 62.127.243.97.107-.027.099-.05zm3.729.75.709-.706-.04-.039-.043-.035zm.87.624-.557.831.02.014.02.012zm1.864.375v-1h-.1l-.097.02zm.373-.124-.449-.894-.145.073-.115.115zm.746-.126v1h.455l.3-.343zm4.6-.374v-1h-.164l-.154.051zm.248 0v1h.1l.097-.02zm2.113.125-.449.893.064.032.067.023zM30.143 65h1v-.082l-.014-.081zm.994 1.125.45-.894-.064-.032-.068-.022zm.87.625-.833.552.055.083.07.07zm1.243 2.124h-1v.123l.03.119zm.622.875.557-.83-.112-.075-.127-.043zm.87.25v1h.163l.155-.052zm.87-1 .895.445.016-.03.013-.032zm4.102-1.874-.117.993.058.007h.06zm.87.25-.449.893.212.107h.237zm.622.125.318-.949-.155-.051h-.163zm.621-.125v-1h-.237l-.212.106zm.249-.125v1h.416l.293-.295zm.497-.5-.318-.948-.067.022-.064.032zm3.73-.125v1h1.384l-.436-1.315zm1.242-3.125-.449-.893-.012.006-.011.006zm1.616-1 .95.316.05-.154v-.161zm-.124-.75-.98.196.025.13.06.12zm2.113-2.498.142.99.09-.014.086-.028zm.87-.25-.373-.928-.19.076-.146.146zm1.616-1.125.896.445.031-.063.022-.067zm.124-.375v-1h-.721l-.228.685zm4.227-1 .914.404.008-.017.007-.017zm-.373-1.75-.895.446.027.056.035.051zm-1.492-6.748h-1v.162l.051.153zm-.373-1.874-.949.314.022.068.032.063zm-.994-.875-.517.856.033.02.035.017zm-1.616-2.125h-1v.05l.005.05zm0-1.25-.98-.194-.02.096v.099zm-2.486-2.499.709-.705-.293-.295h-.416zm-.124.125.626.78.374-.3v-.48zm-2.362.25-.276.961.039.011.04.008zm-1.74-1.75.92-.392-.012-.027-.013-.026zm-1.492-5.623.833-.553zm-.497-.75-.834.553zm-1.74-5.749.98.195.02-.096v-.099zm.124-.874h1v-1h-1zm-2.61-.5.626-.78-.012-.01-.013-.009zm-1.12-1.375.896-.445-.028-.056-.034-.052zm-.745-1 .709-.705-.115-.115-.145-.073zm-1.492.125-.318-.948-.067.023-.064.032zm-.87.375-.318-.948-.808.27.14.842zm-.746 2.25.65.76.03-.027.03-.028zm-9.323 2.499.912.412.006-.015.006-.014zm-.994 3.25-.709-.706zm-1.864 3.123.958-.285-.005-.015-.004-.014zm.745 6.499.755.657.016-.02.016-.02zm-.87 2.125-.677.735.017.016.018.015zm3.108.874.998-.052-.032-.62-.57-.246zm-8.453 5.749-.449.893.596.3.506-.435zm-1.243 1.874.958.286.014-.044.009-.046zm-1.74 2.5.449.893.02-.01.018-.01zm-2.238 2.25.993.123.002-.017.001-.017zm.498 2.749.949.314.016-.048.011-.05zM11 60.752l-.642-.766-.964.807 1.004.758zm1.616 1.125.45-.894-.038-.018-.039-.016zm1.94 1.143c-.048.025-.067.024-.026.016q.052-.011.178-.021c.174-.013.385-.013.643-.013v-2c-.24 0-.526 0-.787.018-.229.016-.59.055-.905.213zm.795-.018c.516 0 .852.077 1.103.178.255.102.476.25.756.476l1.253-1.559c-.341-.275-.741-.563-1.263-.773-.527-.212-1.123-.322-1.85-.322zm1.777.58c.341.343.759.574 1.022.75l1.114-1.661c-.483-.324-.563-.343-.718-.5zm1.062.776c.803.484 1.676.68 2.578.499l-.394-1.96c-.34.068-.71.014-1.15-.252zm2.381.518c.14 0 .647.018 1.082-.42l-1.418-1.41a.627.627 0 0 1 .367-.17h-.03zm.822-.231.01-.004.039-.007c.052-.006.114-.008.248-.008v-2c-.223 0-.705-.014-1.195.232zm1.051-.362c.212-.243.485-.356.87-.377.413-.022.879.068 1.364.19l.488-1.94c-.51-.127-1.225-.287-1.96-.247-.766.042-1.611.304-2.27 1.061zm2.234-.186c.236.059.542.137.841.177.296.04.69.059 1.088-.074l-.635-1.897c.024-.008-.016.012-.187-.011a6 6 0 0 1-.62-.135zm1.611.155h.249v-2h-.249zm.446-.02c.623-.125 1.056-.168 1.467.038l.898-1.787c-1.08-.543-2.139-.337-2.76-.212zm1.598.093c.463.155.61.292.663.357.052.063.108.169.16.483l1.973-.327c-.072-.436-.203-.956-.585-1.423-.382-.466-.919-.767-1.575-.987zm.81.676c0 .32.087.566.182.758.04.08.084.156.108.197.028.049.046.082.063.115l1.79-.89a4 4 0 0 0-.119-.22l-.051-.093c-.004-.007.006.01.014.042q.014.054.013.091zm.353 1.07c.323.65.95.878 1.323 1.003l.636-1.896a3 3 0 0 1-.181-.067 1 1 0 0 1-.07-.035c-.006-.003.007.005.027.025q.033.035.056.08zm1.192.948c.045.023.089.043.124.06l.101.047c.062.03.106.053.143.075a.34.34 0 0 1 .118.102l1.667-1.105c-.436-.657-1.152-.914-1.255-.966zm.61.437c.257.258.573.766.808 1.24l1.791-.89c-.261-.527-.692-1.269-1.18-1.76zm.808 1.24c.046.09.09.168.12.22l.051.092c.004.007-.005-.01-.014-.042a.4.4 0 0 1-.013-.09h2c0-.32-.087-.567-.182-.758-.04-.08-.084-.156-.108-.197a2 2 0 0 1-.063-.116zm.174.42c.065.261.159.595.355.89.23.346.546.567.92.692l.635-1.896c-.013-.005.007 0 .04.025.034.026.059.055.071.074.01.014.003.008-.014-.039a2 2 0 0 1-.066-.228zm1.035 1.465a2.4 2.4 0 0 0 .82.364c.262.058.49.055.607.055v-2a1 1 0 0 1-.17-.007c-.006-.001-.048-.01-.143-.074zm1.745.367c.81-.271 1.213-1.031 1.447-1.502l-1.79-.891c-.115.231-.2.37-.269.454-.062.077-.07.059-.024.043zm1.476-1.565c.222-.537.549-.868.983-1.067.462-.21 1.131-.31 2.078-.197l.235-1.986c-1.167-.138-2.238-.05-3.144.364-.933.427-1.6 1.157-2 2.12zm3.178-1.257c.068 0 .116.01.164.026.062.02.125.05.257.117l.898-1.787c-.256-.129-.69-.356-1.319-.356zm.87.25a1 1 0 0 1-.123-.01l-.016-.004.127.037c.119.034.359.102.634.102v-2c.026 0 .018.004-.082-.024l-.171-.05a1.296 1.296 0 0 0-.368-.052zm.304.073c.261.087.638.176 1.048.01.154-.061.276-.148.298-.163l.042-.027-.898-1.787c-.123.062-.215.124-.257.153l-.016.01a.725.725 0 0 1 .39-.092.4.4 0 0 1 .058.008q.005.003-.03-.009zm.94-.073a1.15 1.15 0 0 0 .833-.358l-.022.02a.8.8 0 0 1-.333.18.9.9 0 0 1-.23.033v-2a1.15 1.15 0 0 0-.764.291c-.036.032-.065.062-.07.066-.01.011.003-.003.022-.02a.8.8 0 0 1 .334-.18.9.9 0 0 1 .23-.032zm.957-.42c.081-.082.147-.167.179-.21.044-.057.06-.079.084-.107.04-.049.029-.022-.026.005l-.898-1.787a1.9 1.9 0 0 0-.616.505c-.054.066-.108.138-.13.166-.033.044-.03.036-.011.017zm.106-.257c.187-.063.381-.073 1.05-.073v-2c-.575 0-1.127-.01-1.686.177zm1.05-.073h.372v-2h-.373zm.372 0h.746v-2h-.746zm.746 0h1.243v-2H45.06zm2.192-1.315c-.197-.596-.242-.861-.194-1.06.03-.125.154-.436.96-.868l-.944-1.763c-1.058.567-1.742 1.256-1.96 2.162-.201.833.065 1.63.24 2.159zm.743-1.916.373-.187.373-.188-.898-1.787-.373.188-.373.187zm.746-.375c.095-.048.18-.084.275-.125.082-.036.215-.092.339-.16.137-.078.3-.19.448-.362.149-.173.245-.365.308-.556l-1.898-.63a.4.4 0 0 1 .072-.115c.05-.06.097-.085.094-.084a2 2 0 0 1-.154.07c-.095.04-.228.098-.382.175zm1.421-1.518c0-.067 0-.239-.021-.438a2.3 2.3 0 0 0-.208-.757l-1.79.89c-.012-.023-.01-.028-.005-.005q.008.032.015.092c.009.081.01.159.01.218zm-.143-.945c-.067-.334-.105-.547-.105-.727 0-.152.029-.202.05-.23l-1.603-1.196c-.352.472-.447.985-.447 1.426 0 .414.085.826.143 1.117zm-.055-.957c.012-.016.07-.084.31-.16.25-.08.572-.133 1.02-.198l-.285-1.98c-.423.061-.91.133-1.344.272-.442.142-.943.387-1.304.87zm1.505-.4c.11-.036.211-.053.407-.092.08-.016.204-.042.327-.083.11-.037.333-.121.527-.317l-1.418-1.41a.8.8 0 0 1 .255-.17c.007-.002-.01.004-.085.02-.114.022-.386.068-.649.156zm.925-.27a6.3 6.3 0 0 0 1.197-.672c.178-.125.35-.26.497-.39.11-.099.32-.295.445-.545l-1.791-.89c.042-.085.081-.124.068-.11l-.058.057a4 4 0 0 1-.312.242 4.4 4.4 0 0 1-.792.453zm2.192-1.737.125-.375-1.899-.63-.124.375zm-.825.31h.373v-2h-.373zm.373 0c.384 0 1.323.034 2.204-.088.444-.06.937-.169 1.38-.373.443-.205.927-.551 1.184-1.135l-1.829-.808c.01-.021-.004.039-.195.127-.19.088-.465.16-.814.208-.704.097-1.444.069-1.93.069zm4.783-1.63c.178-.447.259-.91.138-1.426-.107-.455-.354-.865-.607-1.246l-1.666 1.105c.244.37.308.52.325.597.004.015.023.052-.048.23zm-.407-2.565a6 6 0 0 0-.136-.253l-.129-.231a2.5 2.5 0 0 1-.178-.385l-1.899.63c.09.272.218.521.32.708.126.233.177.311.231.422zm-.443-.869c-.19-.575-.198-1.17-.198-1.81h-2c0 .61-.007 1.515.3 2.44zm-.198-1.81c0-.443.011-1.127-.175-1.69l-1.898.63c.062.188.073.504.073 1.06zm-.175-1.69a3 3 0 0 1-.093-.38c-.03-.155-.072-.366-.156-.619l-1.898.63c.04.122.062.224.093.38.03.156.072.367.156.62zm-.249-.999a15 15 0 0 1-.173-.583c-.06-.213-.13-.454-.2-.666l-1.898.629q.08.246.174.583c.06.213.129.455.199.667zm-.322-.935c0-.269-.066-.514-.091-.616-.037-.148-.033-.153-.033-.134h-2c0 .27.066.515.092.617.036.148.032.152.032.133zm-.124-.75c0-.522-.157-1.175-.353-1.57l-1.791.89c.014.03.055.135.092.295.035.155.052.295.052.385zm-.3-1.44c-.268-.81-1.023-1.216-1.494-1.453l-.898 1.787c.23.116.367.201.45.27.076.062.059.07.044.026zM55.272 44.4c-.646-.39-1.067-.663-1.137-1.368l-1.99.198c.178 1.795 1.498 2.523 2.094 2.882zM54.14 43.13v-1.249h-2v1.249zm-.02-1.054c.06-.294.142-.714.041-1.153-.109-.475-.39-.826-.685-1.122l-1.418 1.41c.202.203.17.228.154.16-.006-.027 0-.03-.005.02a3 3 0 0 1-.048.294zm-.644-2.275c-.448-.45-1.074-.639-1.386-.743l-.635 1.896c.434.146.554.208.603.257zm-1.386-.743c-.364-.122-.534-.188-.727-.382l-1.418 1.41c.553.556 1.128.74 1.51.868zm-1.436.323-.001-1h-.034a1 1 0 0 0-.15.016 1.11 1.11 0 0 0-.94 1.11h2a.891.891 0 0 1-.73.863 1 1 0 0 1-.113.01l-.016.001h-.015zm-.751-.654c-.063.05-.24.127-.59.14a4.3 4.3 0 0 1-.948-.091l-.394 1.96c.351.071.87.148 1.414.129.519-.019 1.213-.13 1.771-.58zm-1.46.068c-.463-.133-.783-.447-1.096-1.18l-1.84.784c.434 1.016 1.108 1.952 2.385 2.318zm-1.12-1.234c-.52-1.045-.641-2.236-.641-3.304h-2c0 1.183.127 2.74.85 4.195zm-.641-3.304c0-.548-.081-.98-.281-1.408-.166-.354-.428-.712-.632-1.019l-1.666 1.106c.294.443.404.585.487.761.048.104.092.234.092.56zm-.913-2.427-.497-.75-1.667 1.106.498.75zm-.497-.75c-.803-1.21-1.506-2.123-1.711-3.36l-1.973.327c.292 1.764 1.329 3.1 2.017 4.139zm-1.711-3.36c-.091-.548-.008-1.007.118-1.64l-1.961-.39c-.123.616-.288 1.407-.13 2.357zm.137-1.836a1.2 1.2 0 0 1 .039-.268c.02-.09.086-.345.086-.606h-2c0-.012.003-.017-.039.174-.035.157-.086.4-.086.7zm-.875-1.874H42.2v2h.622zm-.622 0c-.666 0-1.052-.03-1.362-.28l-1.253 1.559c.933.75 2.038.72 2.615.72zm-1.387-.299a2.9 2.9 0 0 1-.825-1.021l-1.79.89a4.9 4.9 0 0 0 1.411 1.728zm-.887-1.129c-.23-.346-.537-.816-.87-1.152l-1.418 1.41c.163.165.354.444.621.848zm-1.13-1.34c-.402-.202-.794-.286-1.244-.222-.335.049-.715.191-1.015.292l.636 1.896c.208-.07.335-.115.461-.154.119-.038.175-.05.202-.054.017-.002.007 0-.01-.003-.011-.002.007-.001.072.032zm-2.39.125c-.242.122-.437.219-.739.32l.636 1.896c.444-.149.746-.301 1.001-.43zM34.999 22.8c.044.267.036.485-.021.682-.056.194-.177.426-.448.698l1.418 1.41q.711-.716.95-1.55c.161-.553.153-1.085.074-1.567zm-.41 1.325c-.4.343-.984.542-1.791.632-.817.09-1.701.058-2.678.05-.92-.007-1.95.006-2.844.259-.948.268-1.825.83-2.283 1.936l1.847.766c.164-.395.451-.628.98-.778.582-.165 1.34-.19 2.283-.183.888.008 1.946.046 2.916-.062.98-.11 2.028-.38 2.87-1.1zm-9.584 2.848c-.414.917-.34 1.682-.352 2.051a1.1 1.1 0 0 1-.066.395c-.043.105-.135.27-.374.51l1.418 1.41c.383-.384.648-.766.811-1.173.165-.409.2-.778.21-1.077.019-.6-.031-.835.176-1.292zm-.792 2.956a4 4 0 0 1-.786.604c-.21.129-.603.341-.875.571a1.93 1.93 0 0 0-.704 1.298c-.058.51.06 1.067.26 1.671l1.899-.63c-.173-.52-.18-.743-.172-.816.003-.02.004-.007-.01.017-.011.02-.016.016.018-.012.116-.098.244-.158.627-.393.333-.203.741-.477 1.161-.9zm-2.114 4.116c.21.7.493 1.327.744 1.87.262.565.474 1.01.614 1.446.134.417.179.76.131 1.088-.046.321-.193.708-.571 1.19l1.573 1.236c.554-.706.873-1.412.978-2.14.104-.724-.014-1.388-.207-1.986-.186-.58-.464-1.159-.703-1.675-.25-.54-.478-1.052-.642-1.601zm.95 5.555c-.112.13-.26.236-.46.352-.12.07-.188.104-.327.183-.11.061-.261.15-.401.26s-.336.297-.457.582a1.34 1.34 0 0 0-.043.924c.143.47.523.874.895 1.216l1.355-1.47a3 3 0 0 1-.32-.331c-.061-.077-.04-.07-.017.004a.66.66 0 0 1-.17.642l.008-.006.028-.018.103-.06c.068-.039.23-.126.35-.196.276-.16.642-.397.965-.769zm-.758 3.548c.61.512 1.44.662 1.988.752.331.053.567.084.832.133.25.046.42.092.534.142l.791-1.837a4.5 4.5 0 0 0-.96-.272c-.284-.052-.63-.1-.875-.14-.6-.098-.89-.198-1.026-.311zm2.751.16c.005.088-.057.37-.659.864-.559.458-1.372.921-2.316 1.392-.957.477-1.907.895-2.839 1.342-.865.415-1.74.866-2.293 1.341l1.306 1.516c.318-.275.95-.62 1.852-1.053.835-.4 1.913-.88 2.867-1.356.967-.483 1.949-1.027 2.69-1.635.7-.573 1.447-1.415 1.39-2.515zm-7.005 4.804a1.45 1.45 0 0 0-.83-.153c-.297.036-.54.16-.721.3-.335.26-.538.625-.66.889-.257.555-.4 1.222-.462 1.536l1.962.39c.061-.31.168-.768.315-1.087.08-.173.118-.183.066-.143a.54.54 0 0 1-.263.101.55.55 0 0 1-.305-.047zm-2.65 2.481c-.19.637-.312.977-.476 1.233-.14.22-.342.427-.794.68l.975 1.746c.667-.373 1.148-.79 1.506-1.352.334-.524.523-1.122.705-1.735zm-1.231 1.892c-.401.202-1.089.494-1.612.903-.602.47-1.082 1.147-1.173 2.15l1.992.18a.97.97 0 0 1 .413-.755c.316-.247.684-.392 1.278-.69zm-2.781 3.02c-.1.809.218 1.474.36 1.827.16.395.207.585.153.83l1.953.432c.194-.88-.07-1.565-.252-2.013-.198-.491-.253-.638-.23-.83zm.54 2.558c-.068.205-.26.532-.573.92-.301.37-.66.731-.984 1.003l1.284 1.533c.422-.354.871-.805 1.254-1.277.37-.457.737-1.005.918-1.55zm-1.517 3.488c.106.08.215.168.343.273.123.101.264.217.41.33.294.225.658.476 1.092.65l.746-1.855a2.7 2.7 0 0 1-.618-.38c-.117-.09-.233-.185-.362-.291a13 13 0 0 0-.407-.324zm1.769 1.22c.395.198.762.353 1.146.408.414.06.754-.01 1.038-.082l-.487-1.94c-.213.054-.246.046-.267.043-.051-.008-.18-.04-.532-.217z" mask="url(#a)"/></svg>