<svg xmlns="http://www.w3.org/2000/svg" width="70" height="70" fill="none" viewBox="0 0 70 70"><mask id="a" fill="#fff"><path d="M34.187 35.381c-.21-.261-.471-.523-.785-.68-.21-.104-.838-.418-.995-.365-.314.052-.366.575-.628.68-.21.052-1.046-.837-1.256-.994-.157-.105-.314-.261-.418-.366-.21.052-.367.105-.576.21-.157.104-.21.208-.262.365-.104.21-.314.575-.837.575-.471 0-.838-.261-1.204-.47a2.1 2.1 0 0 0-.576-.314c-.104-.052-.209-.052-.314-.052-.209-.053-.418-.053-.628-.21-.104-.052-.157-.104-.261-.156-.105-.105-.262-.157-.367-.21-.261-.051-.628-.104-.89.105l-.157.105c-.366.313-.68.523-1.36.261-.785-.313-.838-.993-.89-1.62-.052-.47-.105-.941-.419-1.202-.052-.053-.104-.105-.209-.157-.523-.366-1.413-.941-1.151-1.673.104-.209.314-.313.575-.47.105-.052.21-.105.262-.157.105-.104.262-.314.21-.418-.053-.105-.105-.105-.367-.105-.157 0-.366 0-.576-.156a.8.8 0 0 1-.314-.419c-.052-.052-.052-.157-.104-.157-.21-.26-.524-.26-.89-.313-.157 0-.314 0-.471-.052-.419-.053-1.047-.105-1.256.052-.053.052-.157.209-.21.366-.104.209-.157.418-.366.575-.576.523-1.099.418-1.36.313-.524-.261-.943-.94-.89-1.672v-.21c0-.365 0-.627-.157-.888-.262-.366-.68-.784-1.309-1.202l-.21-.157.158-.209c.262-.418.733-.68 1.151-.993.21-.105.419-.261.524-.366.157-.105.209-.21.209-.261 0-.053-.052-.105-.262-.21-.052-.052-.209 0-.366 0-.21 0-.419.053-.628 0-.105-.052-.157-.052-.262-.104v.052c0 .157-.052.314-.157.523-.157.261-.366.366-.575.47-.157.105-.367.157-.524.21-.418.156-.89.313-.942.574-.052.157 0 .366 0 .575.053.314.053.628-.052.941-.105.21-.262.366-.419.523-.104.105-.21.209-.261.314-.053.104-.158.209-.21.313-.157.21-.262.366-.262.68 0 .261 0 .47.053.68 0 .156.052.26.052.417 0 .105 0 .262.052.366q0 .47.157.941l.053.157c.157.366.314.732-.105 1.254-.105.105-.21.21-.366.314q-.236.158-.314.314c-.105.209 0 .522.104.784 0 .052.053.157.053.209.157.627.157.888-.21 1.411-.261.418-.261.47-.157.575.262.21.785.261 1.257.314.261.052.523.052.732.104.053 0 .157.053.21.053.366.052.837.156.994.574.105.314-.052.575-.157.784-.052.157-.157.262-.105.366 0 .053.157.21.262.262l.314.313c.21.262.366.628.419.994 0 .365-.157.679-.314.94-.053.105-.157.21-.21.314-.261.627-.785.993-1.256 1.307.053.366 0 .784-.052 1.097 0 .105-.053.262-.053.366-.052.314 0 .837.105.993.105.21.314.262.68.314.262.052.576.105.838.314.47.365.262.784.157.993a.4.4 0 0 0-.105.209c-.052.157-.052.418 0 .627 0 .21.053.418 0 .627-.052.262-.157.418-.261.627-.105.157-.157.262-.157.419a.36.36 0 0 0 0 .261s.104.052.523 0c.262-.052.419-.105.576-.261l.104-.105c.053-.052.157-.157.314-.209.21-.052.471 0 .628.052a.6.6 0 0 0 .262.053c.052 0 .105-.053.157-.053.105-.052.157-.052.262-.104.104-.053 1.046-.262 1.57 0a1 1 0 0 1 .314.366c.052.052.104.156.157.156.052.053.157.053.314.053.104 0 .261 0 .366.052.314.105.367.105.471.261 0 .053.053.053.105.157.21.21.366.418.47.523.21.261.21.313.838.261a6 6 0 0 1 1.675.053c.837.209 1.413.731 1.57 1.41.157.837-.157 1.255-.419 1.673-.104.157-.261.314-.366.523-.21.366-.052.68.157 1.098.157.418.366.836.157 1.306q-.157.314-.942.785a1.1 1.1 0 0 0-.262.156c-.209.157-.47.262-.68.314-.419.157-.628.314-.733.575-.052.157-.052.261-.052.366 0 .261-.052.575-.523.784-.21.104-.42.157-.68.209-.524.105-.838.21-.995.575-.053.209 0 .314.157.575.104.209.314.523.157.889-.053.209-.157.313-.262.418s-.157.157-.157.313c0 .053 0 .105.052.157.053.157.105.366.053.575-.105.261-.419.627-.785.993-.157.157-.314.366-.419.47-.419.576-.576 1.15-.47 1.621.104.366.47.68.993.889.262.104.471.052.68.052h.472c.576.052.785.366.994.732.105.104.157.261.314.418.314.418 1.204 1.097 1.727 1.045.105 0 .157-.052.21-.157.052-.104 0-.313-.053-.47-.052-.157-.052-.314-.052-.418 0-.157.052-.314.105-.47.052-.158.104-.314.052-.419-.052-.313-.21-.418-.471-.627-.105-.052-.21-.157-.366-.261l-.053-.053c-.209-.156-.261-.209-.261-.366 0-.052 0-.104-.053-.209-.052-.156-.104-.313-.104-.47s-.053-.366-.105-.418c-.105-.157-.628-.314-1.1-.314h-.208l-.053-.209c-.052-.366.053-.68.157-.94.105-.262.157-.523.105-.785a.4.4 0 0 0-.105-.261c-.104-.261-.261-.523-.052-.941.21-.47.523-.523.785-.575.105 0 .21-.052.314-.105a.4.4 0 0 0 .21-.209c.209-.209.47-.47.994-.313.575.209.575.523.628.784 0 .104 0 .209.052.313.105.47.105.47.628.575.576.105.837.053 1.256-.156.105-.053.21-.105.314-.21.262-.156.523-.365.995-.365.628 0 1.099.418 1.57.784.418.313.785.68 1.203.68.42 0 .576-.314.733-1.099.157-.627.366-1.358 1.047-1.568.523-.156.942.21 1.204.47.157.158.261.262.418.315h.105c.105 0 .314-.053.523.104.419.261.576.68.733 1.045.21.523.366.889 1.047.837.052 0 .209-.105.314-.157.418-.21.942-.523 1.308-.314.105.053.262.21.262.523v.261h-.367c-.052 0-.052 0-.104.053-.053.313 0 .575 0 .94v.157c.157 0 .366-.052.523-.052.419 0 .995-.052 1.152-.261.104-.105.104-.314.052-.575v-.419c.052-.47.157-1.045.576-1.358.261-.21.628-.262 1.046-.157.524.104.733.418.942.732.105.209.262.365.419.522.262.157.576.157.89.21.314 0 .628.051.89.156.47.21.627.627.732.94.052.21.105.367.262.471.104.105.314.053.575.053.21 0 .42-.053.629 0 .209.052.47.261.837.627.262.261.89.836 1.047.784 0 0 .052-.052.104-.261l.053-.21h.261c.21 0 .367.105.524.157.104.053.21.105.314.105s.21-.052.314-.105c.21-.052.418-.157.68-.104.785.209.576.993.471 1.568-.052.209-.105.418-.105.575s.053.366.053.522c.052.419.157.89-.157 1.307-.105.157-.21.262-.314.366l-.105.105s0 .052.105.313c.105.21.157.262.314.314V69.2c.157.052.262.156.366.261.105.105.21.157.367.157.313.052.47.104.627.209.053.052.105.052.158.104.47.262.942-.26 1.413-.94.052-.105.104-.157.157-.21.052-.052.104-.104.104-.156h-.104v-.47c0-.523 0-1.098.314-1.569.209-.261.47-.47.68-.68.366-.26.68-.574.785-.993.052-.209 0-.26-.419-.47l-.314-.157c-.628-.366-.89-.68-.628-1.463.157-.47.21-.627 0-1.098l-.052-.157c-.105-.261-.262-.522-.262-.888.053-1.098.838-1.307 1.518-1.516a9 9 0 0 1 .576-.157c.418-.157.68-.366.837-.68.052-.104.105-.209.105-.313.105-.314.21-.523.68-.68l.157-.052c.262-.104.471-.157.628-.313.052-.053.105-.157.157-.262.053-.157.157-.366.314-.47.367-.262.733-.105 1.047 0 .157.052.314.157.419.261.157.105.209.157.366.157q.315 0 .628-.157c.157-.052.262-.104.419-.104.157-.053.314-.053.418-.053h.262c.419-.052.366-.209.366-.261-.052-.418-.366-.523-.89-.68l-.627-.156c-.262-.053-.471-.105-.733-.157-.105-.053-.262-.053-.419-.105-.628-.157-1.413-.313-1.727-.836l-.105-.21.21-.156c.262-.209.366-.366.314-.68 0-.052 0-.052-.052-.104-.053-.105-.105-.314-.053-.47.053-.21.21-.314.314-.419.053-.052.105-.052.105-.104s0-.157-.052-.21c-.262-.365-1.204-.679-1.623-.679h-.262v-.261c.053-.94.995-1.046 1.309-1.046h.157c.21 0 .47-.052.576-.104.052-.052.104-.105.104-.157a1 1 0 0 1 .314-.366c.21-.104.419-.104.576-.104h.262c-.053-.053-.314-.523-.524-.837-.157-.26-.47-.365-.785-.47-.314-.105-.628-.21-.837-.47l-.314-.47c-.053-.105-.105-.262-.21-.367-.418-.575-.575-1.097-.418-1.463.104-.314.418-.418.68-.575.052-.053.157-.053.21-.105.209-.157.261-.209.261-.209-.052 0-.261-.157-.366-.209-.157-.105-.419-.209-.576-.366-.157.105-.261.21-.47.262-.524.209-.681-.21-1.205-.366-.89-.314-1.256.261-2.093.522-.628.21-1.047-.104-1.727-.157-.471-.052-.942.053-1.413 0-1.36-.104-1.466-.679-1.256-1.881-.419-.157-1.152 0-1.675 0-.471-.366-.942-.523-1.308-.993-.367-.418-.42-.47-.995-.628-.366-.104-.523-.209-.89-.052-.732.262-1.099.366-1.727-.261-.47-.418-.732-.889-1.36-1.098-.419-.157-.89-.052-1.256-.418-.367-.366-.262-.732-.42-1.15-.208-.47-.836-.627-1.307-.627-.315-.053-.838 0-1.1-.21-.104-.313-.314-.836-.575-1.097"/></mask><path fill="#F5F8F9" stroke="#48639E" stroke-width="2" d="M34.187 35.381c-.21-.261-.471-.523-.785-.68-.21-.104-.838-.418-.995-.365-.314.052-.366.575-.628.68-.21.052-1.046-.837-1.256-.994-.157-.105-.314-.261-.418-.366-.21.052-.367.105-.576.21-.157.104-.21.208-.262.365-.104.21-.314.575-.837.575-.471 0-.838-.261-1.204-.47a2.1 2.1 0 0 0-.576-.314c-.104-.052-.209-.052-.314-.052-.209-.053-.418-.053-.628-.21-.104-.052-.157-.104-.261-.156-.105-.105-.262-.157-.367-.21-.261-.051-.628-.104-.89.105l-.157.105c-.366.313-.68.523-1.36.261-.785-.313-.838-.993-.89-1.62-.052-.47-.105-.941-.419-1.202-.052-.053-.104-.105-.209-.157-.523-.366-1.413-.941-1.151-1.673.104-.209.314-.313.575-.47.105-.052.21-.105.262-.157.105-.104.262-.314.21-.418-.053-.105-.105-.105-.367-.105-.157 0-.366 0-.576-.156a.8.8 0 0 1-.314-.419c-.052-.052-.052-.157-.104-.157-.21-.26-.524-.26-.89-.313-.157 0-.314 0-.471-.052-.419-.053-1.047-.105-1.256.052-.053.052-.157.209-.21.366-.104.209-.157.418-.366.575-.576.523-1.099.418-1.36.313-.524-.261-.943-.94-.89-1.672v-.21c0-.365 0-.627-.157-.888-.262-.366-.68-.784-1.309-1.202l-.21-.157.158-.209c.262-.418.733-.68 1.151-.993.21-.105.419-.261.524-.366.157-.105.209-.21.209-.261 0-.053-.052-.105-.262-.21-.052-.052-.209 0-.366 0-.21 0-.419.053-.628 0-.105-.052-.157-.052-.262-.104v.052c0 .157-.052.314-.157.523-.157.261-.366.366-.575.47-.157.105-.367.157-.524.21-.418.156-.89.313-.942.574-.052.157 0 .366 0 .575.053.314.053.628-.052.941-.105.21-.262.366-.419.523-.104.105-.21.209-.261.314-.053.104-.158.209-.21.313-.157.21-.262.366-.262.68 0 .261 0 .47.053.68 0 .156.052.26.052.417 0 .105 0 .262.052.366q0 .47.157.941l.053.157c.157.366.314.732-.105 1.254-.105.105-.21.21-.366.314q-.236.158-.314.314c-.105.209 0 .522.104.784 0 .052.053.157.053.209.157.627.157.888-.21 1.411-.261.418-.261.47-.157.575.262.21.785.261 1.257.314.261.052.523.052.732.104.053 0 .157.053.21.053.366.052.837.156.994.574.105.314-.052.575-.157.784-.052.157-.157.262-.105.366 0 .053.157.21.262.262l.314.313c.21.262.366.628.419.994 0 .365-.157.679-.314.94-.053.105-.157.21-.21.314-.261.627-.785.993-1.256 1.307.053.366 0 .784-.052 1.097 0 .105-.053.262-.053.366-.052.314 0 .837.105.993.105.21.314.262.68.314.262.052.576.105.838.314.47.365.262.784.157.993a.4.4 0 0 0-.105.209c-.052.157-.052.418 0 .627 0 .21.053.418 0 .627-.052.262-.157.418-.261.627-.105.157-.157.262-.157.419a.36.36 0 0 0 0 .261s.104.052.523 0c.262-.052.419-.105.576-.261l.104-.105c.053-.052.157-.157.314-.209.21-.052.471 0 .628.052a.6.6 0 0 0 .262.053c.052 0 .105-.053.157-.053.105-.052.157-.052.262-.104.104-.053 1.046-.262 1.57 0a1 1 0 0 1 .314.366c.052.052.104.156.157.156.052.053.157.053.314.053.104 0 .261 0 .366.052.314.105.367.105.471.261 0 .053.053.053.105.157.21.21.366.418.47.523.21.261.21.313.838.261a6 6 0 0 1 1.675.053c.837.209 1.413.731 1.57 1.41.157.837-.157 1.255-.419 1.673-.104.157-.261.314-.366.523-.21.366-.052.68.157 1.098.157.418.366.836.157 1.306q-.157.314-.942.785a1.1 1.1 0 0 0-.262.156c-.209.157-.47.262-.68.314-.419.157-.628.314-.733.575-.052.157-.052.261-.052.366 0 .261-.052.575-.523.784-.21.104-.42.157-.68.209-.524.105-.838.21-.995.575-.053.209 0 .314.157.575.104.209.314.523.157.889-.053.209-.157.313-.262.418s-.157.157-.157.313c0 .053 0 .105.052.157.053.157.105.366.053.575-.105.261-.419.627-.785.993-.157.157-.314.366-.419.47-.419.576-.576 1.15-.47 1.621.104.366.47.68.993.889.262.104.471.052.68.052h.472c.576.052.785.366.994.732.105.104.157.261.314.418.314.418 1.204 1.097 1.727 1.045.105 0 .157-.052.21-.157.052-.104 0-.313-.053-.47-.052-.157-.052-.314-.052-.418 0-.157.052-.314.105-.47.052-.158.104-.314.052-.419-.052-.313-.21-.418-.471-.627-.105-.052-.21-.157-.366-.261l-.053-.053c-.209-.156-.261-.209-.261-.366 0-.052 0-.104-.053-.209-.052-.156-.104-.313-.104-.47s-.053-.366-.105-.418c-.105-.157-.628-.314-1.1-.314h-.208l-.053-.209c-.052-.366.053-.68.157-.94.105-.262.157-.523.105-.785a.4.4 0 0 0-.105-.261c-.104-.261-.261-.523-.052-.941.21-.47.523-.523.785-.575.105 0 .21-.052.314-.105a.4.4 0 0 0 .21-.209c.209-.209.47-.47.994-.313.575.209.575.523.628.784 0 .104 0 .209.052.313.105.47.105.47.628.575.576.105.837.053 1.256-.156.105-.053.21-.105.314-.21.262-.156.523-.365.995-.365.628 0 1.099.418 1.57.784.418.313.785.68 1.203.68.42 0 .576-.314.733-1.099.157-.627.366-1.358 1.047-1.568.523-.156.942.21 1.204.47.157.158.261.262.418.315h.105c.105 0 .314-.053.523.104.419.261.576.68.733 1.045.21.523.366.889 1.047.837.052 0 .209-.105.314-.157.418-.21.942-.523 1.308-.314.105.053.262.21.262.523v.261h-.367c-.052 0-.052 0-.104.053-.053.313 0 .575 0 .94v.157c.157 0 .366-.052.523-.052.419 0 .995-.052 1.152-.261.104-.105.104-.314.052-.575v-.419c.052-.47.157-1.045.576-1.358.261-.21.628-.262 1.046-.157.524.104.733.418.942.732.105.209.262.365.419.522.262.157.576.157.89.21.314 0 .628.051.89.156.47.21.627.627.732.94.052.21.105.367.262.471.104.105.314.053.575.053.21 0 .42-.053.629 0 .209.052.47.261.837.627.262.261.89.836 1.047.784 0 0 .052-.052.104-.261l.053-.21h.261c.21 0 .367.105.524.157.104.053.21.105.314.105s.21-.052.314-.105c.21-.052.418-.157.68-.104.785.209.576.993.471 1.568-.052.209-.105.418-.105.575s.053.366.053.522c.052.419.157.89-.157 1.307-.105.157-.21.262-.314.366l-.105.105s0 .052.105.313c.105.21.157.262.314.314V69.2c.157.052.262.156.366.261.105.105.21.157.367.157.313.052.47.104.627.209.053.052.105.052.158.104.47.262.942-.26 1.413-.94.052-.105.104-.157.157-.21.052-.052.104-.104.104-.156h-.104v-.47c0-.523 0-1.098.314-1.569.209-.261.47-.47.68-.68.366-.26.68-.574.785-.993.052-.209 0-.26-.419-.47l-.314-.157c-.628-.366-.89-.68-.628-1.463.157-.47.21-.627 0-1.098l-.052-.157c-.105-.261-.262-.522-.262-.888.053-1.098.838-1.307 1.518-1.516a9 9 0 0 1 .576-.157c.418-.157.68-.366.837-.68.052-.104.105-.209.105-.313.105-.314.21-.523.68-.68l.157-.052c.262-.104.471-.157.628-.313.052-.053.105-.157.157-.262.053-.157.157-.366.314-.47.367-.262.733-.105 1.047 0 .157.052.314.157.419.261.157.105.209.157.366.157q.315 0 .628-.157c.157-.052.262-.104.419-.104.157-.053.314-.053.418-.053h.262c.419-.052.366-.209.366-.261-.052-.418-.366-.523-.89-.68l-.627-.156c-.262-.053-.471-.105-.733-.157-.105-.053-.262-.053-.419-.105-.628-.157-1.413-.313-1.727-.836l-.105-.21.21-.156c.262-.209.366-.366.314-.68 0-.052 0-.052-.052-.104-.053-.105-.105-.314-.053-.47.053-.21.21-.314.314-.419.053-.052.105-.052.105-.104s0-.157-.052-.21c-.262-.365-1.204-.679-1.623-.679h-.262v-.261c.053-.94.995-1.046 1.309-1.046h.157c.21 0 .47-.052.576-.104.052-.052.104-.105.104-.157a1 1 0 0 1 .314-.366c.21-.104.419-.104.576-.104h.262c-.053-.053-.314-.523-.524-.837-.157-.26-.47-.365-.785-.47-.314-.105-.628-.21-.837-.47l-.314-.47c-.053-.105-.105-.262-.21-.367-.418-.575-.575-1.097-.418-1.463.104-.314.418-.418.68-.575.052-.053.157-.053.21-.105.209-.157.261-.209.261-.209-.052 0-.261-.157-.366-.209-.157-.105-.419-.209-.576-.366-.157.105-.261.21-.47.262-.524.209-.681-.21-1.205-.366-.89-.314-1.256.261-2.093.522-.628.21-1.047-.104-1.727-.157-.471-.052-.942.053-1.413 0-1.36-.104-1.466-.679-1.256-1.881-.419-.157-1.152 0-1.675 0-.471-.366-.942-.523-1.308-.993-.367-.418-.42-.47-.995-.628-.366-.104-.523-.209-.89-.052-.732.262-1.099.366-1.727-.261-.47-.418-.732-.889-1.36-1.098-.419-.157-.89-.052-1.256-.418-.367-.366-.262-.732-.42-1.15-.208-.47-.836-.627-1.307-.627-.315-.053-.838 0-1.1-.21-.104-.313-.314-.836-.575-1.097Z" mask="url(#a)"/></svg>